<svg xmlns="http://www.w3.org/2000/svg" viewBox="-7651.927 1110.954 71.695 102.164">
  <defs>
    <style>
      .cls-1 {
        fill: #fff;
      }

      .cls-2 {
        fill: #e87d1e;
      }
    </style>
  </defs>
  <g id="Group_7732" data-name="Group 7732" transform="translate(-7651.927 1110.954)">
    <g id="Group_4326" data-name="Group 4326">
      <rect id="Rectangle_2222" data-name="Rectangle 2222" class="cls-1" width="55.031" height="86.227" transform="translate(8.886 9.008)"/>
      <path id="Path_5930" data-name="Path 5930" class="cls-2" d="M172.8,70.294V161.87a5.288,5.288,0,0,0,5.294,5.294H239.2a5.288,5.288,0,0,0,5.294-5.294V70.294A5.288,5.288,0,0,0,239.2,65H178.094A5.288,5.288,0,0,0,172.8,70.294Zm16.333,87.8H183.67a1.634,1.634,0,0,1-1.633-1.633V151a1.634,1.634,0,0,1,1.633-1.633h5.463A1.634,1.634,0,0,1,190.766,151v5.463A1.634,1.634,0,0,1,189.133,158.1Zm0-14.024H183.67a1.634,1.634,0,0,1-1.633-1.633v-5.463a1.634,1.634,0,0,1,1.633-1.633h5.463a1.634,1.634,0,0,1,1.633,1.633v5.463A1.634,1.634,0,0,1,189.133,144.073Zm0-14.024H183.67a1.634,1.634,0,0,1-1.633-1.633v-5.463a1.634,1.634,0,0,1,1.633-1.633h5.463a1.634,1.634,0,0,1,1.633,1.633v5.463A1.634,1.634,0,0,1,189.133,130.049Zm0-14.024H183.67a1.634,1.634,0,0,1-1.633-1.633v-5.463a1.634,1.634,0,0,1,1.633-1.633h5.463a1.634,1.634,0,0,1,1.633,1.633v5.463A1.634,1.634,0,0,1,189.133,116.026ZM202.649,158.1h-5.463a1.634,1.634,0,0,1-1.633-1.633V151a1.634,1.634,0,0,1,1.633-1.633h5.463A1.634,1.634,0,0,1,204.283,151v5.463A1.634,1.634,0,0,1,202.649,158.1Zm0-14.024h-5.463a1.634,1.634,0,0,1-1.633-1.633v-5.463a1.634,1.634,0,0,1,1.633-1.633h5.463a1.634,1.634,0,0,1,1.633,1.633v5.463A1.634,1.634,0,0,1,202.649,144.073Zm0-14.024h-5.463a1.634,1.634,0,0,1-1.633-1.633v-5.463a1.634,1.634,0,0,1,1.633-1.633h5.463a1.634,1.634,0,0,1,1.633,1.633v5.463A1.634,1.634,0,0,1,202.649,130.049Zm0-14.024h-5.463a1.634,1.634,0,0,1-1.633-1.633v-5.463a1.634,1.634,0,0,1,1.633-1.633h5.463a1.634,1.634,0,0,1,1.633,1.633v5.463A1.634,1.634,0,0,1,202.649,116.026ZM216.222,158.1h-5.463a1.634,1.634,0,0,1-1.633-1.633V151a1.634,1.634,0,0,1,1.633-1.633h5.463A1.634,1.634,0,0,1,217.856,151v5.463A1.634,1.634,0,0,1,216.222,158.1Zm0-14.024h-5.463a1.634,1.634,0,0,1-1.633-1.633v-5.463a1.634,1.634,0,0,1,1.633-1.633h5.463a1.634,1.634,0,0,1,1.633,1.633v5.463A1.634,1.634,0,0,1,216.222,144.073Zm0-14.024h-5.463a1.634,1.634,0,0,1-1.633-1.633v-5.463a1.634,1.634,0,0,1,1.633-1.633h5.463a1.634,1.634,0,0,1,1.633,1.633v5.463A1.634,1.634,0,0,1,216.222,130.049Zm0-14.024h-5.463a1.634,1.634,0,0,1-1.633-1.633v-5.463a1.634,1.634,0,0,1,1.633-1.633h5.463a1.634,1.634,0,0,1,1.633,1.633v5.463A1.634,1.634,0,0,1,216.222,116.026ZM233.681,158.1h-5.463a1.634,1.634,0,0,1-1.633-1.633V136.976a1.634,1.634,0,0,1,1.633-1.633h5.463a1.634,1.634,0,0,1,1.633,1.633v19.487A1.634,1.634,0,0,1,233.681,158.1Zm0-28.047h-5.463a1.634,1.634,0,0,1-1.633-1.633v-5.463a1.634,1.634,0,0,1,1.633-1.633h5.463a1.634,1.634,0,0,1,1.633,1.633v5.463A1.634,1.634,0,0,1,233.681,130.049Zm0-14.024h-5.463a1.634,1.634,0,0,1-1.633-1.633v-5.463a1.634,1.634,0,0,1,1.633-1.633h5.463a1.634,1.634,0,0,1,1.633,1.633v5.463A1.634,1.634,0,0,1,233.681,116.026Zm.507-23.091H183.106a1.13,1.13,0,0,1-1.126-1.126V75.138a1.13,1.13,0,0,1,1.126-1.126h51.082a1.13,1.13,0,0,1,1.126,1.126V91.808A1.13,1.13,0,0,1,234.188,92.934Z" transform="translate(-172.8 -65)"/>
    </g>
    <g id="Group_4327" data-name="Group 4327" transform="translate(28.836 12.334)">
      <path id="Path_5931" data-name="Path 5931" class="cls-2" d="M224,89.772a2.694,2.694,0,0,1,2.985-2.872h2.7a2.562,2.562,0,0,1,2.872,2.816V96.08a2.543,2.543,0,0,1-2.872,2.816h-2.7c-1.746,0-2.929-.845-2.929-2.816V89.772Zm3.323,7.322h1.971c.9,0,1.3-.394,1.3-1.3V89.941a1.158,1.158,0,0,0-1.3-1.3H227.21a1.2,1.2,0,0,0-1.352,1.3v5.914C225.915,96.869,226.647,97.094,227.323,97.094Z" transform="translate(-224 -86.9)"/>
      <path id="Path_5932" data-name="Path 5932" class="cls-2" d="M242.6,89.772a2.694,2.694,0,0,1,2.985-2.872h2.7a2.562,2.562,0,0,1,2.872,2.816V96.08a2.543,2.543,0,0,1-2.872,2.816h-2.7c-1.746,0-2.929-.845-2.929-2.816V89.772Zm3.267,7.322h1.971c.9,0,1.3-.394,1.3-1.3V89.941a1.158,1.158,0,0,0-1.3-1.3h-2.084a1.2,1.2,0,0,0-1.352,1.3v5.914A1.312,1.312,0,0,0,245.867,97.094Z" transform="translate(-232.125 -86.9)"/>
      <path id="Path_5933" data-name="Path 5933" class="cls-2" d="M261.2,89.772a2.694,2.694,0,0,1,2.985-2.872h2.7a2.562,2.562,0,0,1,2.872,2.816V96.08a2.543,2.543,0,0,1-2.872,2.816h-2.7c-1.746,0-2.929-.845-2.929-2.816V89.772Zm3.267,7.322h1.971c.9,0,1.3-.394,1.3-1.3V89.941a1.158,1.158,0,0,0-1.3-1.3h-2.084a1.2,1.2,0,0,0-1.352,1.3v5.914C263.059,96.869,263.791,97.094,264.467,97.094Z" transform="translate(-240.249 -86.9)"/>
    </g>
  </g>
</svg>
