<svg xmlns="http://www.w3.org/2000/svg" viewBox="3905.594 -19746 92.813 60.809">
  <defs>
    <style>
      .cls-1 {
        fill: #f5f5f5;
      }

      .cls-2 {
        fill: #ff4b55;
      }
    </style>
  </defs>
  <g id="canada" transform="translate(3905.594 -19834.273)">
    <rect id="Rectangle_4064" data-name="Rectangle 4064" class="cls-1" width="51.207" height="60.809" transform="translate(20.803 88.274)"/>
    <g id="Group_6759" data-name="Group 6759" transform="translate(0 88.273)">
      <path id="Path_15666" data-name="Path 15666" class="cls-2" d="M6.951,88.273A6.951,6.951,0,0,0,0,95.224v46.907a6.951,6.951,0,0,0,6.951,6.951H20.8V88.273Z" transform="translate(0 -88.273)"/>
      <path id="Path_15667" data-name="Path 15667" class="cls-2" d="M411.093,88.273H397.241v60.808h13.852a6.951,6.951,0,0,0,6.951-6.951V95.224A6.951,6.951,0,0,0,411.093,88.273Z" transform="translate(-325.231 -88.273)"/>
      <path id="Path_15668" data-name="Path 15668" class="cls-2" d="M178.985,178.08l9.5-5.426-2.179-1.089a1.6,1.6,0,0,1-.87-1.643l.709-5.315-4.02,1.17a1.6,1.6,0,0,1-2.009-1.191l-.385-1.74-3.775,4.418a.793.793,0,0,1-1.384-.649l1.612-9.373-2.468.675a1.6,1.6,0,0,1-1.834-.79l-2.6-4.871v-.007l0,0,0,0v.007l-2.6,4.871a1.6,1.6,0,0,1-1.834.79l-2.468-.675,1.612,9.373a.793.793,0,0,1-1.384.649l-3.775-4.418-.385,1.74a1.6,1.6,0,0,1-2.009,1.191l-4.02-1.17.709,5.315a1.6,1.6,0,0,1-.87,1.643l-2.179,1.089,9.5,5.426a2.31,2.31,0,0,1,1.018,2.815l-.812,2.171,8.137-.695a.756.756,0,0,1,.82.776l-.256,8.709h1.6l-.257-8.71a.756.756,0,0,1,.82-.776l8.14.7-.812-2.171A2.311,2.311,0,0,1,178.985,178.08Z" transform="translate(-122.868 -140.649)"/>
    </g>
  </g>
</svg>
