<svg xmlns="http://www.w3.org/2000/svg" viewBox="0 0 23.587 23.797">
  <defs>
    <style>
      .cls-1 {
        fill: #fff;
      }

      .cls-2 {
        fill: #ff983d;
      }
    </style>
  </defs>
  <g id="Group_7898" data-name="Group 7898" transform="translate(-0.1)">
    <g id="Group_7897" data-name="Group 7897" transform="translate(0.1)">
      <path id="Path_19607" data-name="Path 19607" class="cls-1" d="M10.772,24.336A5.153,5.153,0,0,1,8.623,23.9a21.434,21.434,0,0,1-3.553-2.3,9.331,9.331,0,0,1-3.18-4.014,13.748,13.748,0,0,1-.57-1.842c-.066-.285-.154-.548-.219-.833v-.088a2.521,2.521,0,0,1,.768-1.755A7.692,7.692,0,0,0,4.1,6.483a4.048,4.048,0,0,0-.088-.5c-.044-.307-.11-.636-.132-.965a1.053,1.053,0,0,1,.351-.855,21.075,21.075,0,0,1,6.953-2.873A23.07,23.07,0,0,1,14.523,1c.373,0,.724.022,1.075.044,2.237.154,4.079,1.272,6.031,3.575A4.563,4.563,0,0,1,22.9,8.435a2.337,2.337,0,0,0,.658,2.215,1.9,1.9,0,0,1,.658,2.149.746.746,0,0,0-.022.219,14.03,14.03,0,0,1-2.807,6.229A10.991,10.991,0,0,1,17,23.02,15.772,15.772,0,0,1,12.834,24.1l-.483.088A8.682,8.682,0,0,1,10.772,24.336ZM9.325,21.682a8.327,8.327,0,0,0,1.886.263c.2,0,.417.022.614.022a13.054,13.054,0,0,0,4.189-.724,4.848,4.848,0,0,0,2.829-2.259c.154-.263.285-.5.417-.768a1.225,1.225,0,0,1-.11.175A5.984,5.984,0,0,1,16.014,21.2a13.337,13.337,0,0,1-4.321.658,18.535,18.535,0,0,1-1.864-.088A4.048,4.048,0,0,0,9.325,21.682Zm-3.18-2.018a5.479,5.479,0,0,0,1.4,1.272,4.034,4.034,0,0,1-.483-.373A7.121,7.121,0,0,1,6.145,19.665Zm2.676-3.4a.874.874,0,0,0-.154.329.654.654,0,0,0,.175.373l.175.132a8.783,8.783,0,0,0,1.469.943A1.169,1.169,0,0,1,11.3,19.2a4.348,4.348,0,0,0,.219,1.162l.066.263c0,.022.044.044.066.066.044-.022.066-.066.088-.066l.066-.2a2.538,2.538,0,0,0,.2-.877c-.022-.921.526-.965,1.075-.987a6.445,6.445,0,0,0,2.391-.526,2.927,2.927,0,0,0,1.469-2.435,2.117,2.117,0,0,0-1.119-2,18.35,18.35,0,0,0-2.588-1.14c-.483-.175-.768-.417-.68-1.031.066-.373.11-.768.154-1.14.044-.395.088-.812.154-1.228.044-.241.329-.614.614-.614h.022c.461.044.943.132,1.4.219.175.022.351.066.526.088a2.777,2.777,0,0,0-1.623-.79c-.2-.044-.395-.11-.57-.154L13.1,7.777l-.022-.219a2.615,2.615,0,0,0-.526.668,1.621,1.621,0,0,0-.145.719h0l-.6,2.922-.7.373.147.341a.975.975,0,0,1,.483.855c-.11,1.053-.241,2.084-.373,3.158l-.132,1.053-.022.241-.263-.11a2.832,2.832,0,0,1-1.842-1.36c-.022-.066-.154-.11-.263-.175l-.022.022Zm-2.478-9.8A7.513,7.513,0,0,0,4.894,8.742a10.786,10.786,0,0,0-.636,6.492A10.486,10.486,0,0,1,6.123,6.768,3.721,3.721,0,0,0,6.342,6.461Zm11.164-.219a6.4,6.4,0,0,1,3.312,5.483c.022.263.022.548.022.812a6.218,6.218,0,0,0-2.983-6.1.789.789,0,0,1-.329-.417l-.044.066-.175-.066c-.241-.11-.461-.219-.68-.329a12.684,12.684,0,0,0-1.382-.614,9.542,9.542,0,0,0-3.158-.592A5.9,5.9,0,0,0,9.7,4.97a2.854,2.854,0,0,0-.833.461A6.277,6.277,0,0,1,10.18,4.97a10.16,10.16,0,0,1,2.259-.241,9.218,9.218,0,0,1,3.97.9l.066.022c.439.219.658.329.724.548,0,.022.022.066.022.088l.132-.132Z" transform="translate(-0.881 -0.781)"/>
      <path id="Path_19608" data-name="Path 19608" class="cls-2" d="M13.742.439c.351,0,.7.022,1.053.044,2.5.175,4.3,1.623,5.878,3.509a4.267,4.267,0,0,1,1.206,3.641,2.439,2.439,0,0,0,.746,2.435c.877.636.658,1.4.548,2.171A13.707,13.707,0,0,1,20.41,18.38a10.758,10.758,0,0,1-4.3,3.685A18.4,18.4,0,0,1,11.5,23.2a9.107,9.107,0,0,1-1.535.154,4.66,4.66,0,0,1-2.04-.417,20.357,20.357,0,0,1-3.509-2.259,9.774,9.774,0,0,1-3.114-3.948C.955,15.879.78,14.98.517,14.1a2.208,2.208,0,0,1,.7-1.6,7.89,7.89,0,0,0,2.3-6.755c-.066-.483-.175-.965-.2-1.448,0-.219.088-.57.241-.658A19.717,19.717,0,0,1,10.43.768,16.957,16.957,0,0,1,13.742.439m2.9,4.606c-.724-.329-1.382-.7-2.084-.943a9.869,9.869,0,0,0-3.224-.614,6.263,6.263,0,0,0-2.478.5A2.545,2.545,0,0,0,7.382,5.176a15.781,15.781,0,0,1,2.084-.79,10.872,10.872,0,0,1,2.215-.241,8.932,8.932,0,0,1,3.86.877c.833.417.855.373.373,1.184-.022.022.022.066.044.154.219-.263.439-.483.658-.724a6.161,6.161,0,0,1,3.2,5.308,11.346,11.346,0,0,1-1.645,6.514,5.563,5.563,0,0,1-3,2.742,13.44,13.44,0,0,1-4.255.636,17.957,17.957,0,0,1-1.864-.088,4.757,4.757,0,0,1-2.632-1.14,8.267,8.267,0,0,1-2.7-4.935A10.279,10.279,0,0,1,5.5,6.119,9.35,9.35,0,0,1,8.961,3.465,7.287,7.287,0,0,0,3.916,7.874a11.229,11.229,0,0,0-.088,8.6c1.25,3.378,3.312,4.737,6.6,4.913.2,0,.417.022.614.022a13.678,13.678,0,0,0,4.277-.724,5.183,5.183,0,0,0,2.939-2.369,16.547,16.547,0,0,0,1.777-4.957c.724-3.224.066-5.966-2.829-7.874-.417-.263-.175-.5-.044-.768.241-.461.526-.921.768-1.4-.044-.022-.11-.066-.154-.088-.395.614-.768,1.228-1.14,1.82m-6.4,11.734a2.528,2.528,0,0,1-1.689-1.25c-.088-.175-.373-.241-.548-.351a2.014,2.014,0,0,0-.307.614.7.7,0,0,0,.263.548,9.436,9.436,0,0,0,1.711,1.1.943.943,0,0,1,.68.965,7.155,7.155,0,0,0,.285,1.491c.022.11.175.2.285.307.11-.088.263-.175.307-.285a3.631,3.631,0,0,0,.285-1.14c-.022-.68.285-.724.877-.768a6.377,6.377,0,0,0,2.478-.548c1.667-.833,2.369-3.685.351-4.825a19.735,19.735,0,0,0-2.61-1.162c-.439-.154-.614-.329-.526-.812.132-.79.175-1.579.307-2.369.022-.175.263-.439.395-.439h0c.636.066,1.294.2,1.93.329.132.022.263.022.461.044C14.6,7.106,13.5,7.084,12.6,6.8c-.044-.285-.066-.526-.088-.768a1.38,1.38,0,0,1-1.338,1.075,2.324,2.324,0,0,0-1.14.5,2.565,2.565,0,0,0-1.228,2.413,2.385,2.385,0,0,0,1.667,1.952.806.806,0,0,1,.351.614c-.241,1.382-.417,2.764-.592,4.189M13.742,0h0a20.518,20.518,0,0,0-3.356.307,19.737,19.737,0,0,0-7.04,2.939A1.262,1.262,0,0,0,2.885,4.3a7.608,7.608,0,0,0,.132.987c.022.175.066.329.088.5a7.581,7.581,0,0,1-2.171,6.4A2.708,2.708,0,0,0,.1,14.081v.066l.022.066c.088.263.154.548.219.812a15.116,15.116,0,0,0,.57,1.864,9.672,9.672,0,0,0,3.268,4.123,22.246,22.246,0,0,0,3.575,2.325,5.161,5.161,0,0,0,2.237.461,8.729,8.729,0,0,0,1.6-.154,3.719,3.719,0,0,0,.483-.088,16.129,16.129,0,0,0,4.211-1.1,11.054,11.054,0,0,0,4.474-3.838,14.266,14.266,0,0,0,2.829-6.339c0-.066.022-.154.022-.219a2.154,2.154,0,0,0-.746-2.369,2.083,2.083,0,0,1-.57-2A4.739,4.739,0,0,0,20.98,3.707,8.759,8.759,0,0,0,14.817.044C14.466.022,14.115,0,13.742,0ZM10.606,17.349l.066-.5.132-1.053c.132-1.1.263-2.127.373-3.18a1.135,1.135,0,0,0-.614-1.075,1.921,1.921,0,0,1-1.4-1.6,2.087,2.087,0,0,1,1.053-2,2.017,2.017,0,0,1,.9-.417,1.75,1.75,0,0,0,1.053-.395l.2.066a5.88,5.88,0,0,0,.592.154c.2.044.395.11.592.154-.263-.044-.548-.088-.812-.11h-.044c-.395,0-.768.483-.833.79-.066.417-.11.833-.154,1.228-.044.373-.088.768-.154,1.14a1.038,1.038,0,0,0,.812,1.272,18.153,18.153,0,0,1,2.566,1.14,1.973,1.973,0,0,1,1.009,1.8A2.666,2.666,0,0,1,14.6,17.02a5.984,5.984,0,0,1-2.3.5c-.526.044-1.316.088-1.294,1.228a2,2,0,0,1-.11.57,3.676,3.676,0,0,1-.154-.943,1.265,1.265,0,0,0-.636-1.206h.022l.483.175Zm-2.149-1.14c-.022-.022-.066-.044-.088-.066l-.2-.132a.271.271,0,0,1-.088-.175c0-.022.022-.044.044-.066l.022.022a5.06,5.06,0,0,0,.307.417Z" transform="translate(-0.1)"/>
    </g>
    <path id="Path_19610" data-name="Path 19610" class="cls-2" d="M19.372,15.019a9.35,9.35,0,0,0-3.465,2.654,10.279,10.279,0,0,0-1.777,8.554,8.036,8.036,0,0,0,2.7,4.935A4.757,4.757,0,0,0,19.46,32.3a15.207,15.207,0,0,0,6.119-.548,5.727,5.727,0,0,0,3.027-2.72,11.162,11.162,0,0,0,1.623-6.514,6.161,6.161,0,0,0-3.2-5.308c-.219.241-.417.483-.658.724-.022-.088-.066-.132-.044-.154.483-.812.461-.79-.373-1.184a9.087,9.087,0,0,0-6.075-.636,15.781,15.781,0,0,0-2.084.79,2.525,2.525,0,0,1,1.469-1.184,7.762,7.762,0,0,1,5.7.11c.7.241,1.338.614,2.084.943.373-.592.768-1.206,1.14-1.82.044.022.11.066.154.088-.263.461-.526.921-.768,1.4-.132.263-.351.5.044.768,2.9,1.886,3.553,4.628,2.829,7.852a17.4,17.4,0,0,1-1.777,4.957,5.166,5.166,0,0,1-2.939,2.369,13.3,13.3,0,0,1-4.891.7c-3.268-.175-5.352-1.535-6.6-4.913a11.33,11.33,0,0,1,.088-8.6A7.337,7.337,0,0,1,19.372,15.019Z" transform="translate(-10.412 -11.554)"/>
    <path id="Path_19611" data-name="Path 19611" class="cls-1" d="M52.74,56.2c.79.285,1.36.526,1.93.68a2.2,2.2,0,0,1,1.491,2.171,2.281,2.281,0,0,1-1.93,1.886c-1.645.263-1.667.263-1.645-1.36C52.631,58.481,52.7,57.384,52.74,56.2Z" transform="translate(-40.972 -43.874)"/>
  </g>
</svg>
