<svg xmlns="http://www.w3.org/2000/svg" viewBox="1235.27 9391.955 52.091 52.091">
  <defs>
    <style>
      .cls-1 {
        fill: #fff;
      }

      .cls-2 {
        fill: #4c76be;
        fill-rule: evenodd;
      }
    </style>
  </defs>
  <g id="facebook" transform="translate(1235.27 9391.955)">
    <circle id="Ellipse_7" data-name="Ellipse 7" class="cls-1" cx="26.045" cy="26.045" r="26.045"/>
    <g id="facebook_" data-name="facebook " transform="translate(14.919 7.86)">
      <path id="Path_55" data-name="Path 55" class="cls-2" d="M107.19,77.648c1.186-.066,2.307,0,3.493,0h.461v-6c-.593-.066-1.252-.132-1.912-.2a32.076,32.076,0,0,0-3.559-.066,8.681,8.681,0,0,0-5.01,1.582,7.723,7.723,0,0,0-3.032,5.01,16.881,16.881,0,0,0-.2,2.571c-.066,1.318,0,2.7,0,4.021V85.1H91.7v6.723h5.735v16.874h6.987V91.885h5.669c.264-2.241.593-4.416.857-6.723h-6.591s0-3.3.066-4.746C104.487,78.307,105.608,77.714,107.19,77.648Z" transform="translate(-91.7 -71.359)"/>
    </g>
  </g>
</svg>
