<svg xmlns="http://www.w3.org/2000/svg" viewBox="-1179 -20183.248 42.361 50.799">
  <defs>
    <style>
      .cls-1 {
        fill: #fff;
      }
    </style>
  </defs>
  <g id="Home" transform="translate(-1179 -20183.248)">
    <path id="Path_16663" data-name="Path 16663" class="cls-1" d="M42.361,22.917H36.8V43.559c.538.179,0,.538-.359,1.436-17.591-2.333-12.744-2.333-30.514-.359-.538-.179-.359-1.077-.359-1.077V22.917H0a10.515,10.515,0,0,1,1.615-1.974,34.706,34.706,0,0,1,5.026-3.949c2.333-1.436,2.872-3.231,2.513-5.744C8.8,8.019,8.975,7.839,12.206,8.2a10.145,10.145,0,0,1,2.333,0,5.1,5.1,0,0,1,2.154.718c0,.179-.179.359-.179.538.179,0,.359,0,.359-.179,4.487-2.692,4.667-2.692,8.8.359,4.846,3.59,9.693,7.18,14.36,10.949C40.925,20.943,41.464,21.661,42.361,22.917ZM30.335,42.662q2.692.269,4.846.538V22.558a162.086,162.086,0,0,0-28,0V43.021c5.026-.359,10.231-.538,15.8-.9V32.969c0-1.615.538-2.333,1.974-2.333a39.039,39.039,0,0,1,4.667.18c.538,0,1.256.9,1.256,1.436C30.694,35.661,30.514,39.072,30.335,42.662Zm7.359-21.54c.179-.179.179-.359.359-.538-5.385-3.769-10.77-7.539-16.334-11.308a2.534,2.534,0,0,0-1.615.179,52.454,52.454,0,0,0-5.744,3.769C10.949,15.737,7.539,18.25,3.59,21.3A135.683,135.683,0,0,1,37.694,21.122ZM28.54,42.662V32.79c-1.077-.179-2.513-.179-3.949-.359V42.3C25.848,42.482,26.925,42.482,28.54,42.662ZM10.77,9.993c.179,1.077.179,2.154.359,3.41,1.436-1.077,2.513-1.974,3.59-2.872-.179-.179-.179-.359-.359-.538Z" transform="translate(0 5.802)"/>
    <path id="Path_16664" data-name="Path 16664" class="cls-1" d="M14.547,2.333c.9,1.615,1.615,2.872,0,3.769s-2.333-.359-3.231-1.795A19.076,19.076,0,0,0,9.342,5.923c.359.538.9.9,1.256,1.436.179.359.538,1.077.359,1.256a1.83,1.83,0,0,1-1.436.9c-1.974,0-2.154.359-1.256,2.154.179.359,0,.718.179,1.077-.538,0-1.077.179-1.436-.179-1.256-.9-1.077-2.333-.359-3.769a12.463,12.463,0,0,1,.9-2.333A5.521,5.521,0,0,1,8.983,3.769c1.795-1.256,3.769-2.333,5.564-3.41A10.746,10.746,0,0,1,16.7,0c.538,0,.9.718,1.436,1.077-.538.179-.9.538-1.436.718A18.628,18.628,0,0,1,14.547,2.333Z" transform="translate(4.839)"/>
    <path id="Path_16665" data-name="Path 16665" class="cls-1" d="M11.7,17.739c1.795-.359,2.872.359,3.051,2.692s.359,4.487.718,6.821c.179,1.436-.359,2.154-1.795,2.154-1.795,0-3.59.18-5.385.359-1.436.179-1.974-.359-2.154-1.795-.179-2.872-.359-5.564-.538-8.436,0-1.077.179-1.795,1.615-1.615A19.833,19.833,0,0,0,11.7,17.739Zm1.974,9.872c-.179-1.256-.179-2.154-.359-3.231-.538-5.026-.538-5.026-5.564-4.487-.179,0-.179.179-.538.359.179,2.513.538,5.205.718,7.9C9.908,27.97,11.523,27.791,13.677,27.611Z" transform="translate(4.452 14.032)"/>
  </g>
</svg>
