<svg xmlns="http://www.w3.org/2000/svg" viewBox="0 0 61.017 53.228">
  <defs>
    <style>
      .cls-1 {
        fill: #fff;
      }
    </style>
  </defs>
  <g id="send_icon" data-name="send icon" transform="translate(0)">
    <path id="Path_5349" data-name="Path 5349" class="cls-1" d="M60.723,32.956a.973.973,0,0,0-1.032-.21L.621,55.687A.974.974,0,0,0,.5,57.443l12.241,6.9,4.249,20.767a.973.973,0,0,0,.172.4l.023.03a.974.974,0,0,0,.609.358c.032.005.063.009.095.01l.061,0a.968.968,0,0,0,.512-.146.956.956,0,0,0,.144-.109l.038-.036,9.215-9.238A.974.974,0,1,0,26.475,75l-7.238,7.257L20.8,68.865,42.906,81a.972.972,0,0,0,.7.093l.07-.02a.971.971,0,0,0,.545-.441l.017-.031a.973.973,0,0,0,.062-.143L60.96,33.982A.974.974,0,0,0,60.723,32.956ZM3.245,56.757,51.526,38.006,13.567,62.572Zm16.147,9.8a.974.974,0,0,0-.232.27l-.023.042a.97.97,0,0,0-.1.356L17.681,78.79,14.689,64.166,47.474,42.948ZM42.844,78.742l-21.127-11.6L57.91,36.719Z" transform="translate(0 -32.68)"/>
  </g>
</svg>
