<svg xmlns="http://www.w3.org/2000/svg" viewBox="9165.013 -19587.506 47.009 40.598">
  <defs>
    <style>
      .cls-1 {
        fill: #fff;
        stroke: #fff;
        stroke-width: 0.4px;
      }
    </style>
  </defs>
  <g id="Services" transform="translate(9161.735 -19603.672)">
    <g id="Group_7248" data-name="Group 7248" transform="translate(9.346 16.375)">
      <g id="Group_7244" data-name="Group 7244" transform="translate(0 0)">
        <path id="Path_16680" data-name="Path 16680" class="cls-1" d="M45.868,60.659c-3.205,0-6.563-.076-10.378-.305a.522.522,0,0,1-.534-.534,41.581,41.581,0,0,0,0-5.342v-.916a13.759,13.759,0,0,1,.458-4.807,84.423,84.423,0,0,1-5.876-6.868l-.076-.076a.47.47,0,0,1-.076-.534.515.515,0,0,1,.458-.305l7.631-.382a.461.461,0,0,1,.458.229c.229.382.382.763.534,1.068A7.6,7.6,0,0,0,39.839,44.1a.459.459,0,0,1,.305-.076l1.908.076c1.831.076,3.587.076,5.418.153a2.373,2.373,0,0,0,.839-.076,7.736,7.736,0,0,1,2.213-2.9,6.579,6.579,0,0,0,1.831-2.289.6.6,0,0,1,.305-.305.341.341,0,0,1,.382,0l5.342,2.671a.762.762,0,0,1,.305.382.968.968,0,0,1-.076.458,16.014,16.014,0,0,1-1.831,2.06,13.663,13.663,0,0,0-2.595,3.358c-.458,1.068-1.679,1.068-2.518,1.068h-.076c-3.51,0-7.021.076-10.607.153l-3.587.076-1.145.153a20.877,20.877,0,0,0-.229,4.5v.916c.076,1.6.153,3.2.076,4.884a173.275,173.275,0,0,0,17.857,0,.51.51,0,0,1,.534.458c0,.229-.229.534-.458.534C51.438,60.583,48.691,60.659,45.868,60.659ZM39.839,44.94h0a6.563,6.563,0,0,0-2.976,2.976l.61-.076h.076l3.587-.076c3.51-.076,7.021-.076,10.607-.153h.076c.839,0,1.374-.076,1.526-.458a14.852,14.852,0,0,1,2.747-3.663c.458-.534.916-.992,1.374-1.45L53.117,39.9a9.715,9.715,0,0,1-1.831,2.137A6.627,6.627,0,0,0,49.3,44.711c-.153.458-.61.61-1.831.534-1.831,0-3.587-.076-5.418-.153l-1.908-.076C39.992,45.092,39.915,45.016,39.839,44.94Zm-9-2.976c1.526,1.908,3.281,4.044,4.884,5.723a7.9,7.9,0,0,1,2.9-3.281,10.911,10.911,0,0,1-1.145-1.984c-.153-.229-.229-.534-.382-.763Z" transform="translate(-29.334 -38.625)"/>
      </g>
      <g id="Group_7245" data-name="Group 7245" transform="translate(18.896 5.472)">
        <path id="Path_16681" data-name="Path 16681" class="cls-1" d="M58.907,61.9h0a.522.522,0,0,1-.534-.534c0-.916,0-1.908.076-2.823,0-2.213.076-4.5.153-6.791.076-1.831-.382-2.9-1.679-3.51l-2.595-1.526a.5.5,0,1,1,.534-.839L57.38,47.4c2.06,1.068,2.289,2.976,2.213,4.5-.076,2.213-.153,4.5-.153,6.715,0,.916,0,1.908-.076,2.823A.492.492,0,0,1,58.907,61.9Z" transform="translate(-54.096 -45.796)"/>
      </g>
    </g>
    <g id="Group_7257" data-name="Group 7257" transform="translate(3.477 37.777)">
      <g id="Group_7249" data-name="Group 7249" transform="translate(25.858)">
        <path id="Path_16684" data-name="Path 16684" class="cls-1" d="M61.395,79.556a.411.411,0,0,1-.383-.273.338.338,0,0,1,.273-.438c3.446-.82,6.071-3.008,8.641-5.36a14.6,14.6,0,0,0,2.789-3.336,2.012,2.012,0,0,0,.383-1.477,1.5,1.5,0,0,0-.711-.875,3.052,3.052,0,0,1-.438.273,4.877,4.877,0,0,0-1.148.875c-2.68,3.446-6.508,4.7-10.227,5.688l-.383.109a17.034,17.034,0,0,1-6.672.93.387.387,0,0,1,.109-.766,16.527,16.527,0,0,0,6.344-.875l.438-.109c3.61-.984,7.329-2.188,9.844-5.469a5.032,5.032,0,0,1,1.367-1.039,3.678,3.678,0,0,0,.6-.383.331.331,0,0,1,.438,0,2.376,2.376,0,0,1,1.2,1.477,2.459,2.459,0,0,1-.492,2.024,16.2,16.2,0,0,1-2.953,3.5c-2.516,2.3-5.305,4.649-8.915,5.524Z" transform="translate(-53.181 -66.95)"/>
      </g>
      <g id="Group_7250" data-name="Group 7250" transform="translate(19.087 9.85)">
        <path id="Path_16685" data-name="Path 16685" class="cls-1" d="M43.589,92.858H41.183a.383.383,0,0,1,0-.766h1.258a21.037,21.037,0,0,0,2.625-.055c1.039-.109,2.024-.328,3.063-.492a35.074,35.074,0,0,1,4.813-.6A13.628,13.628,0,0,0,62.02,86.9a7.48,7.48,0,0,0,1.039-1.2,5.812,5.812,0,0,1,.492-.6.389.389,0,0,1,.6.492,4.174,4.174,0,0,0-.438.6A12.649,12.649,0,0,1,62.622,87.5a14.291,14.291,0,0,1-9.571,4.266,33.508,33.508,0,0,0-4.7.6c-.984.164-2.078.383-3.063.492Z" transform="translate(-40.8 -84.961)"/>
      </g>
      <g id="Group_7251" data-name="Group 7251" transform="translate(10.227 1.703)">
        <path id="Path_16686" data-name="Path 16686" class="cls-1" d="M24.983,85.233a.374.374,0,0,1-.383-.383.366.366,0,0,1,.328-.383l2.735-.164c-.055-.109-.055-.164-.109-.273a2.784,2.784,0,0,1-.383-1.422c.055-1.2.164-2.406.273-3.61.055-.766.164-1.586.219-2.352a4.051,4.051,0,0,1,2.242-3.391,11.751,11.751,0,0,1,6.125-1.75H36.3c2.625,0,5.25-.109,7.711-.328a6.116,6.116,0,0,0,2.078-.656c.328-.164.711-.273,1.039-.438a.4.4,0,0,1,.492.219l.766,1.75a.425.425,0,0,1-.109.438c-.273.219-.492.438-.766.656a10.292,10.292,0,0,1-1.969,1.477,16.122,16.122,0,0,1-2.242.93,14.552,14.552,0,0,0-2.133.875,3.776,3.776,0,0,1-3.938-.055.367.367,0,1,1,.328-.656,3.236,3.236,0,0,0,3.227.055,11.213,11.213,0,0,1,2.242-.875c.711-.273,1.477-.547,2.133-.875a8.719,8.719,0,0,0,1.8-1.367c.164-.164.383-.328.547-.492l-.492-1.149c-.219.109-.492.164-.711.273a7.422,7.422,0,0,1-2.3.711c-2.57.219-5.25.383-8.04.383h-.055a11.486,11.486,0,0,0-5.743,1.641,3.311,3.311,0,0,0-1.859,2.789c-.055.82-.109,1.586-.219,2.352-.109,1.149-.219,2.352-.273,3.555a3.9,3.9,0,0,0,.328,1.094,6.368,6.368,0,0,1,.328.82.362.362,0,0,1-.055.328.3.3,0,0,1-.273.164l-3.172.109Z" transform="translate(-24.6 -70.064)"/>
      </g>
      <g id="Group_7252" data-name="Group 7252" transform="translate(0 2.981)">
        <path id="Path_16687" data-name="Path 16687" class="cls-1" d="M13.119,88.206a42.078,42.078,0,0,1-6.891-.711.387.387,0,1,1,.109-.766,31.057,31.057,0,0,0,9.516.492,19.048,19.048,0,0,1,.164-12.8,38,38,0,0,0-9.079-1.258.383.383,0,1,1,0-.766h0a40.748,40.748,0,0,1,9.68,1.367.235.235,0,0,1,.219.219.349.349,0,0,1,0,.328,17.978,17.978,0,0,0-.164,13.071.362.362,0,0,1-.055.328.3.3,0,0,1-.273.164A15,15,0,0,1,13.119,88.206Z" transform="translate(-5.9 -72.4)"/>
      </g>
      <g id="Group_7253" data-name="Group 7253" transform="translate(33.068 5.586)">
        <path id="Path_16688" data-name="Path 16688" class="cls-1" d="M66.712,86.59a.369.369,0,0,1-.328-.219c-.055-.219,0-.438.219-.492a32.415,32.415,0,0,0,7.93-4.321A8.312,8.312,0,0,0,77.267,77.4c.055-.219.273-.273.492-.219s.273.273.219.492a9.252,9.252,0,0,1-2.953,4.485,34.2,34.2,0,0,1-8.149,4.43Z" transform="translate(-66.364 -77.164)"/>
      </g>
      <g id="Group_7254" data-name="Group 7254" transform="translate(10.268 5.318)">
        <path id="Path_16689" data-name="Path 16689" class="cls-1" d="M28.407,78.056h-.055L24.962,77.4a.365.365,0,1,1,.164-.711l3.391.656a.338.338,0,0,1,.273.438A.431.431,0,0,1,28.407,78.056Z" transform="translate(-24.675 -76.675)"/>
      </g>
      <g id="Group_7255" data-name="Group 7255" transform="translate(28.965 3.702)">
        <path id="Path_16690" data-name="Path 16690" class="cls-1" d="M60.14,75.185a1.692,1.692,0,0,1-1.149-.438.389.389,0,1,1,.492-.6c.6.492,1.039.273,1.8-.109.164-.109.328-.164.492-.273a.367.367,0,1,1,.328.656,3.249,3.249,0,0,0-.438.219A3.245,3.245,0,0,1,60.14,75.185Z" transform="translate(-58.861 -73.719)"/>
      </g>
      <g id="Group_7256" data-name="Group 7256" transform="translate(43.882 2.39)">
        <path id="Path_16691" data-name="Path 16691" class="cls-1" d="M87.047,73.934a.2.2,0,0,1-.164-.055c-1.149-.656-.711-1.641-.383-2.188l.109-.164a.367.367,0,1,1,.656.328l-.109.164c-.383.711-.383.93.109,1.2a.441.441,0,0,1,.164.492C87.265,73.825,87.156,73.934,87.047,73.934Z" transform="translate(-86.137 -71.319)"/>
      </g>
    </g>
  </g>
</svg>
