<svg xmlns="http://www.w3.org/2000/svg" viewBox="-1180.525 -20062.338 46.227 37.662">
  <defs>
    <style>
      .cls-1 {
        fill: #fff;
        stroke: #fff;
      }
    </style>
  </defs>
  <g id="Shipments" transform="translate(-1180.023 -20061.818)">
    <g id="Group_7229" data-name="Group 7229" transform="translate(12.081 11.931)">
      <path id="Path_16666" data-name="Path 16666" class="cls-1" d="M74.1,80.034a.2.2,0,0,1-.214-.214V59.353L56.459,56.117a.219.219,0,0,1,.086-.429l17.574,3.279a.209.209,0,0,1,.171.214V79.819A.187.187,0,0,1,74.1,80.034Z" transform="translate(-56.285 -55.685)"/>
    </g>
    <g id="Group_7230" data-name="Group 7230" transform="translate(10.515 14.42)">
      <path id="Path_16667" data-name="Path 16667" class="cls-1" d="M68.166,89.524a4.331,4.331,0,0,1-1.65-.321C63,87.831,59.4,86.738,56.014,85.731c-1.522-.45-3.108-.793-4.629-1.114-.664-.15-1.35-.279-2.015-.429a.262.262,0,0,1-.171-.193c-.021-.386-.064-.75-.107-1.072a11.392,11.392,0,0,1-.107-1.65c.129-3.45.279-6.944.407-10.308.043-1.157.107-2.315.15-3.45a.214.214,0,0,1,.429,0c-.043,1.157-.107,2.315-.15,3.45-.15,3.386-.3,6.879-.407,10.308a10.928,10.928,0,0,0,.107,1.586c.021.279.064.579.086.922.622.129,1.243.279,1.865.407,1.543.321,3.129.664,4.672,1.114,3.386,1.007,6.987,2.1,10.523,3.472a5.628,5.628,0,0,0,3.986-.236c.279-.086.557-.171.857-.257,2.829-.793,5.679-1.757,8.444-2.7,1.072-.364,2.186-.75,3.279-1.114V68.286a.214.214,0,0,1,.429,0V84.638a.206.206,0,0,1-.15.193c-1.157.386-2.315.772-3.429,1.157-2.765.943-5.615,1.907-8.465,2.7l-.836.257A7.511,7.511,0,0,1,68.166,89.524Z" transform="translate(-48.98 -67.3)"/>
    </g>
    <g id="Group_7231" data-name="Group 7231" transform="translate(6.503 -0.004)">
      <path id="Path_16668" data-name="Path 16668" class="cls-1" d="M53.671,9.962a3.081,3.081,0,0,1-2.315-1.479c-.107-.129-.236-.279-.343-.407-.836-.922-1.65-1.929-2.443-2.872-.471-.557-.943-1.136-1.414-1.714-.622-.729-1.286-1.479-1.907-2.186-.257-.279-.493-.557-.729-.836L30.589,8.334a.221.221,0,0,1-.214-.386L44.434.018a.228.228,0,0,1,.257.043c.279.321.557.643.857.964.622.707,1.286,1.457,1.907,2.186.471.557.964,1.157,1.414,1.714.772.943,1.586,1.929,2.422,2.85.129.129.236.279.364.407.664.793,1.286,1.543,2.486,1.264a.219.219,0,1,1,.086.429A2.33,2.33,0,0,1,53.671,9.962Z" transform="translate(-30.259 0.004)"/>
    </g>
    <g id="Group_7232" data-name="Group 7232" transform="translate(11.304 1.612)">
      <path id="Path_16669" data-name="Path 16669" class="cls-1" d="M52.882,17.152a.225.225,0,0,1-.193-.107.217.217,0,0,1,.086-.3l11.037-5.936L62.8,7.829a.217.217,0,1,1,.407-.15l1.05,3.15a.189.189,0,0,1-.107.257L52.968,17.131A.129.129,0,0,1,52.882,17.152Z" transform="translate(-52.659 -7.537)"/>
    </g>
    <g id="Group_7233" data-name="Group 7233" transform="translate(13.795 9.273)">
      <path id="Path_16670" data-name="Path 16670" class="cls-1" d="M64.5,45.431a.228.228,0,0,1-.214-.193A.213.213,0,0,1,64.481,45L79.2,43.288a.213.213,0,0,1,.236.193.2.2,0,0,1-.193.236L64.524,45.431Z" transform="translate(-64.285 -43.285)"/>
    </g>
    <g id="Group_7234" data-name="Group 7234" transform="translate(31.008 9.834)">
      <path id="Path_16671" data-name="Path 16671" class="cls-1" d="M158.595,51.686a.265.265,0,0,1-.171-.086,5.614,5.614,0,0,1-.407-1.436c-.15-2.057-.15-2.057-2.315-2.315-2.572-.3-5.165-.686-7.672-1.05-1.072-.15-2.165-.321-3.236-.471a.251.251,0,0,1-.193-.236c0-.107.129-.193.236-.193,1.072.15,2.165.3,3.236.471,2.507.364,5.1.75,7.672,1.05,2.315.279,2.529.364,2.679,2.7a7.542,7.542,0,0,0,.321,1.243.211.211,0,0,1-.064.3C158.68,51.686,158.637,51.686,158.595,51.686Z" transform="translate(-144.6 -45.9)"/>
    </g>
    <g id="Group_7235" data-name="Group 7235" transform="translate(29.676 12.144)">
      <path id="Path_16672" data-name="Path 16672" class="cls-1" d="M138.6,60.178a.231.231,0,0,1-.214-.171.2.2,0,0,1,.171-.236c1.072-.171,3.172-.622,5.015-1.029.964-.214,1.865-.407,2.443-.536,1.564-.321,3.15-.686,4.693-1.05.664-.15,1.329-.321,2.015-.471a.219.219,0,0,1,.086.429c-.664.15-1.329.3-1.993.471-1.543.364-3.129.729-4.693,1.05-.579.107-1.479.321-2.422.514-1.843.407-3.943.879-5.036,1.029Z" transform="translate(-138.385 -56.681)"/>
    </g>
    <g id="Group_7236" data-name="Group 7236" transform="translate(0.023 11.348)">
      <path id="Path_16673" data-name="Path 16673" class="cls-1" d="M2.183,58.2a.079.079,0,0,1-.064-.021.219.219,0,0,1-.129-.107L.04,53.679A.213.213,0,0,1,.147,53.4a.213.213,0,0,1,.279.107L2.29,57.686l.257-.129c.257-.129.45-.236.643-.343C4,56.786,4.8,56.272,5.569,55.779c2.293-1.457,4.651-2.936,7.672-2.807a.215.215,0,0,1,.214.214.23.23,0,0,1-.214.214c-2.915-.107-5.1,1.286-7.437,2.765-.772.493-1.586,1.007-2.4,1.436-.193.107-.407.214-.643.343l-.45.236C2.247,58.179,2.226,58.2,2.183,58.2Z" transform="translate(-0.023 -52.963)"/>
    </g>
    <g id="Group_7237" data-name="Group 7237" transform="translate(4.439 15.368)">
      <path id="Path_16674" data-name="Path 16674" class="cls-1" d="M26.749,77.721a.2.2,0,0,1-.15-.064l-1.072-1.136c-.836-.9-1.693-1.822-2.572-2.679a13.882,13.882,0,0,0-1.522-1.2c-.236-.171-.493-.343-.729-.536a.214.214,0,0,1,.257-.343c.236.171.471.343.729.514a14.428,14.428,0,0,1,1.586,1.243c.9.857,1.757,1.8,2.593,2.679.343.386.707.75,1.05,1.136a.207.207,0,0,1,0,.3A.256.256,0,0,1,26.749,77.721Z" transform="translate(-20.626 -71.726)"/>
    </g>
    <g id="Group_7238" data-name="Group 7238" transform="translate(22.788 5.45)">
      <path id="Path_16675" data-name="Path 16675" class="cls-1" d="M110.865,29.7a.4.4,0,0,1-.15-.043l-4.393-3.836a.213.213,0,0,1,.279-.321l4.393,3.836a.208.208,0,0,1,.021.3A.454.454,0,0,1,110.865,29.7Z" transform="translate(-106.245 -25.445)"/>
    </g>
    <g id="Group_7239" data-name="Group 7239" transform="translate(28.522 9.277)">
      <path id="Path_16676" data-name="Path 16676" class="cls-1" d="M133.3,49.472a.215.215,0,0,1-.214-.214L133,43.514a.2.2,0,0,1,.214-.214h0a.215.215,0,0,1,.214.214l.086,5.744a.2.2,0,0,1-.214.214Z" transform="translate(-133 -43.3)"/>
    </g>
    <g id="Group_7240" data-name="Group 7240" transform="translate(2.89 16.156)">
      <path id="Path_16677" data-name="Path 16677" class="cls-1" d="M16.679,78.893a.2.2,0,0,1-.15-.064l-3.065-3.065a.212.212,0,0,1,.3-.3l3.065,3.065a.207.207,0,0,1,0,.3A.232.232,0,0,1,16.679,78.893Z" transform="translate(-13.4 -75.4)"/>
    </g>
    <g id="Group_7241" data-name="Group 7241" transform="translate(6.705 19.992)">
      <path id="Path_16678" data-name="Path 16678" class="cls-1" d="M34.093,96.386a.2.2,0,0,1-.15-.064l-2.679-2.657a.212.212,0,1,1,.3-.3l2.679,2.657a.207.207,0,0,1,0,.3A.167.167,0,0,1,34.093,96.386Z" transform="translate(-31.2 -93.3)"/>
    </g>
    <g id="Group_7242" data-name="Group 7242" transform="translate(3.845 8.303)">
      <path id="Path_16679" data-name="Path 16679" class="cls-1" d="M18.079,40.351a.256.256,0,0,1-.193-.107.231.231,0,0,1,.064-.3l1.907-1.157a.231.231,0,0,1,.3.064.236.236,0,0,1-.064.3l-1.907,1.157A.362.362,0,0,1,18.079,40.351Z" transform="translate(-17.856 -38.756)"/>
    </g>
  </g>
</svg>
