<?xml version="1.0" encoding="utf-8"?>
<!-- Generator: Adobe Illustrator 22.0.1, SVG Export Plug-In . SVG Version: 6.00 Build 0)  -->
<svg version="1.1" id="Layer_1" xmlns="http://www.w3.org/2000/svg" xmlns:xlink="http://www.w3.org/1999/xlink" x="0px" y="0px"
	 viewBox="0 0 36.3 36.3" style="enable-background:new 0 0 36.3 36.3;" xml:space="preserve">
<style type="text/css">
	.st0{fill:#082158;}
	.st1{fill:#FFFFFF;}
</style>
<g id="smartphone" transform="translate(-2340.844 8809.756)">
	<path id="Path_5340" class="st0" d="M2366.6-8809.8h-15.3c-1.5,0-2.7,1.2-2.7,2.7v31c0,1.5,1.2,2.7,2.7,2.7h15.3
		c1.5,0,2.7-1.2,2.7-2.7v-31C2369.3-8808.6,2368.1-8809.8,2366.6-8809.8z M2349.9-8804.9h18.2v23h-18.2V-8804.9z M2351.4-8808.5
		h15.3c0.8,0,1.5,0.7,1.5,1.5v1h-18.2v-1C2349.9-8807.9,2350.6-8808.5,2351.4-8808.5z M2366.6-8774.6h-15.3c-0.8,0-1.5-0.7-1.5-1.5
		v-4.6h18.2v4.6C2368.1-8775.3,2367.4-8774.6,2366.6-8774.6z"/>
	<path id="Path_5341" class="st1" d="M2359-8780.1c-1.3,0-2.4,1.1-2.4,2.4c0,1.3,1.1,2.4,2.4,2.4s2.4-1.1,2.4-2.4
		C2361.4-8779,2360.3-8780.1,2359-8780.1z M2359-8776.5c-0.7,0-1.2-0.5-1.2-1.2c0-0.7,0.5-1.2,1.2-1.2c0.7,0,1.2,0.5,1.2,1.2l0,0
		C2360.2-8777,2359.7-8776.5,2359-8776.5z"/>
	<path id="Path_5342" class="st1" d="M2356.6-8806.7h2.4c0.3,0,0.6-0.3,0.6-0.6c0-0.3-0.3-0.6-0.6-0.6h-2.4c-0.3,0-0.6,0.3-0.6,0.6
		C2356-8807,2356.3-8806.7,2356.6-8806.7z"/>
	<path id="Path_5343" class="st1" d="M2360.8-8806.7h0.6c0.3,0,0.6-0.3,0.6-0.6c0-0.3-0.3-0.6-0.6-0.6h-0.6c-0.3,0-0.6,0.3-0.6,0.6
		C2360.2-8807,2360.5-8806.7,2360.8-8806.7z"/>
	<path id="Path_5344" class="st1" d="M2375.1-8807c-0.2-0.2-0.6-0.2-0.9,0s-0.2,0.6,0,0.9l0,0c2.3,2.3,2.3,5.9,0,8.2
		c-0.2,0.2-0.2,0.6,0,0.9s0.6,0.2,0.9,0l0,0C2377.9-8799.8,2377.9-8804.2,2375.1-8807z"/>
	<path id="Path_5345" class="st1" d="M2372.6-8805.6c-0.2-0.2-0.6-0.2-0.9,0c-0.2,0.2-0.2,0.6,0,0.9l0,0c1.5,1.6,1.5,4.1,0,5.6
		c-0.2,0.2-0.2,0.6,0,0.9c0.2,0.2,0.6,0.2,0.9,0C2374.6-8800.3,2374.6-8803.6,2372.6-8805.6z"/>
	<path id="Path_5346" class="st1" d="M2343.8-8806.1c0.2-0.2,0.2-0.6,0-0.9s-0.6-0.2-0.9,0c-2.7,2.7-2.7,7.2,0,9.9
		c0.2,0.2,0.6,0.2,0.9,0s0.2-0.6,0-0.9l0,0C2341.5-8800.2,2341.5-8803.9,2343.8-8806.1z"/>
	<path id="Path_5347" class="st1" d="M2346.3-8805.8c-0.2-0.2-0.6-0.2-0.8,0c0,0,0,0,0,0c-2,2-2,5.3,0,7.3c0.2,0.2,0.6,0.2,0.9,0
		s0.2-0.6,0-0.9l0,0c-1.5-1.6-1.5-4.1,0-5.6C2346.5-8805.2,2346.5-8805.5,2346.3-8805.8z"/>
</g>
</svg>
