<svg xmlns="http://www.w3.org/2000/svg" viewBox="-7068.711 1123.253 137.984 81.297">
  <defs>
    <style>
      .cls-1, .cls-7 {
        fill: #e87d1e;
      }

      .cls-1, .cls-3, .cls-4, .cls-5, .cls-6, .cls-8 {
        fill-rule: evenodd;
      }

      .cls-2, .cls-5 {
        fill: none;
      }

      .cls-10, .cls-3, .cls-6 {
        fill: #fff;
      }

      .cls-4 {
        fill: #dd3e13;
      }

      .cls-5 {
        stroke: #e87d1e;
      }

      .cls-6 {
        opacity: 0.2;
      }

      .cls-8, .cls-9 {
        fill: #fafbfc;
      }
    </style>
  </defs>
  <g id="Group_7733" data-name="Group 7733" transform="translate(-7068.711 1123.253)">
    <g id="Group_4279" data-name="Group 4279" transform="translate(43.404)">
      <path id="Path_5323" data-name="Path 5323" class="cls-1" d="M430.754,311.7a3.008,3.008,0,0,1-2.954-2.954V253.754a3.008,3.008,0,0,1,2.954-2.954h86.126a3.008,3.008,0,0,1,2.954,2.954v54.994a3.008,3.008,0,0,1-2.954,2.954Z" transform="translate(-426.436 -249.664)"/>
      <path id="Path_5324" data-name="Path 5324" class="cls-2" d="M517.417,252.572a1.792,1.792,0,0,1,1.818,1.818v54.994a1.792,1.792,0,0,1-1.818,1.818H431.29a1.792,1.792,0,0,1-1.818-1.818V254.39a1.792,1.792,0,0,1,1.818-1.818h86.126m0-2.273H431.29a4.073,4.073,0,0,0-4.09,4.09v54.994a4.073,4.073,0,0,0,4.09,4.09h86.126a4.073,4.073,0,0,0,4.09-4.09V254.39a4.073,4.073,0,0,0-4.09-4.09Z" transform="translate(-427.2 -250.3)"/>
    </g>
    <path id="Path_5325" data-name="Path 5325" class="cls-3" d="M433.5,251.3h8.181l35.678,41.586a1.455,1.455,0,1,0,2.272-1.818l-34.087-39.541H509.4a1.979,1.979,0,0,1,1.818,1.363v55.676h-30Z" transform="translate(-375.779 -249.028)"/>
    <path id="Path_5326" data-name="Path 5326" class="cls-4" d="M464.308,273.627h3.182a17.778,17.778,0,0,1,7.954,4.09,10.928,10.928,0,0,1,2.045,2.5H455.9l-2.5-2.954a14.95,14.95,0,0,1,9.09-3.863h1.136A.834.834,0,0,0,464.308,273.627Z" transform="translate(-350.457 -220.906)"/>
    <path id="Path_5327" data-name="Path 5327" class="cls-4" d="M472.607,278.7H454.882l-.682-.682A13.628,13.628,0,0,1,472.607,278.7Z" transform="translate(-349.439 -219.161)"/>
    <path id="Path_5328" data-name="Path 5328" class="cls-4" d="M471.089,278.218a12.747,12.747,0,0,0-16.589,0h16.589Z" transform="translate(-349.058 -218.679)"/>
    <path id="Path_5329" data-name="Path 5329" class="cls-5" d="M423.082,285.462H526.706a.725.725,0,0,0,.682-.682v-7.5a.725.725,0,0,0-.682-.682H423.082a.726.726,0,0,0-.682.682v7.5A1.024,1.024,0,0,0,423.082,285.462Z" transform="translate(-389.904 -216.834)"/>
    <path id="Path_5330" data-name="Path 5330" class="cls-1" d="M411.516,280.033Z" transform="translate(-373.112 -225.721)"/>
    <path id="Path_5331" data-name="Path 5331" class="cls-6" d="M437.161,288.051h-.227L415.8,257.6l22.952.227Z" transform="translate(-398.302 -241.011)"/>
    <path id="Path_5332" data-name="Path 5332" class="cls-1" d="M423.209,282.918H526.833a.725.725,0,0,0,.682-.682V278.6H422.3v3.636C422.527,282.463,422.982,282.918,423.209,282.918Z" transform="translate(-390.031 -214.289)"/>
    <rect id="Rectangle_16" data-name="Rectangle 16" class="cls-7" width="3.181" height="40.904" transform="translate(42.722 21.134)"/>
    <g id="Group_4280" data-name="Group 4280" transform="translate(0 11.362)">
      <path id="Path_5333" data-name="Path 5333" class="cls-8" d="M410.418,312.939a1.792,1.792,0,0,1-1.818-1.818V283.4c0-.227,0-.455.227-.455l13.408-24.77.227-.227c.682-1.136,1.364-2.045,4.09-2.045h21.134a3.337,3.337,0,0,1,3.636,2.954l.227,52.948c0,.227-.227.682-.227.909-.227.227-.455.227-.909.227h-40Zm4.318-19.771h5.908a27,27,0,0,1,19.089-7.954,37.158,37.158,0,0,1,5,.455l.227-24.315H427.234c-.682,0-.682,0-1.136.909L414.736,283.4v9.772Z" transform="translate(-407.464 -254.537)"/>
      <path id="Path_5334" data-name="Path 5334" class="cls-7" d="M448.1,257.572c1.591,0,2.5.682,2.5,2.045l.227,52.721H411.054a.6.6,0,0,1-.682-.682h0v-27.5l13.407-24.77c.682-1.136.682-1.818,3.181-1.818H448.1m-33.86,37.5h7.5a25.078,25.078,0,0,1,18.634-7.954,28.215,28.215,0,0,1,6.136.682l.227-25.679c0-.682-.227-1.136-.682-1.136H427.87c-.909,0-1.363.227-2.045,1.591l-11.59,21.361v11.135M448.1,255.3H426.961c-3.181,0-4.09.909-5,2.727l-.227.227-13.408,24.77a1.7,1.7,0,0,0-.227,1.136v27.724a3.008,3.008,0,0,0,2.954,2.954h40a2.33,2.33,0,0,0,2.272-2.272l-.227-52.721v-.227a4.764,4.764,0,0,0-5-4.318Zm-31.587,29.088,11.135-20.907a.223.223,0,0,1,.227-.227h16.362L444,285.069a22.052,22.052,0,0,0-3.863-.227A28.485,28.485,0,0,0,420.6,292.8h-4.318v-8.408Z" transform="translate(-408.1 -255.3)"/>
    </g>
    <path id="Path_5335" data-name="Path 5335" class="cls-5" d="M409.1,275.5v10.681h0a.6.6,0,0,0,.682.682H449.55V275.5Z" transform="translate(-406.827 -218.234)"/>
    <path id="Path_5336" data-name="Path 5336" class="cls-3" d="M431.335,273.754h-3.182a17.777,17.777,0,0,0-7.954,4.09,16.273,16.273,0,0,0-5,11.362h32.5A16.419,16.419,0,0,0,432.925,273.3h-1.136C431.789,273.754,431.562,273.754,431.335,273.754Z" transform="translate(-399.066 -221.033)"/>
    <path id="Path_5338" data-name="Path 5338" class="cls-1" d="M438.229,278.7a12.534,12.534,0,1,1-17.725,0A12.761,12.761,0,0,1,438.229,278.7Z" transform="translate(-396.871 -218.711)"/>
    <path id="Union_16" data-name="Union 16" class="cls-9" d="M1.706,1.7A5.784,5.784,0,0,0,9.883,9.884a5.76,5.76,0,0,0,0-8.18h0a5.764,5.764,0,0,0-8.181,0Z" transform="translate(38.291 74.65) rotate(180)"/>
    <path id="Union_17" data-name="Union 17" class="cls-7" d="M1.022,1.022a3.85,3.85,0,0,0,0,5.226,3.854,3.854,0,0,0,5.229,0,3.851,3.851,0,0,0,0-5.226A3.7,3.7,0,0,0,3.635,0,3.691,3.691,0,0,0,1.022,1.022Z" transform="translate(36.018 72.604) rotate(180)"/>
    <path id="Path_5344" data-name="Path 5344" class="cls-8" d="M424.654,280a2.089,2.089,0,0,1-2.954,2.954Z" transform="translate(-390.794 -212.508)"/>
    <path id="Path_5345" data-name="Path 5345" class="cls-8" d="M422.082,283.336a2.089,2.089,0,1,1,2.954-2.954Z" transform="translate(-391.176 -212.89)"/>
    <path id="Path_5346" data-name="Path 5346" class="cls-3" d="M467.362,273.754h3.182a17.777,17.777,0,0,1,7.954,4.09,16.273,16.273,0,0,1,5,11.362H451A16.419,16.419,0,0,1,465.771,273.3h1.136C466.907,273.754,467.135,273.754,467.362,273.754Z" transform="translate(-353.511 -221.033)"/>
    <path id="Path_5348" data-name="Path 5348" class="cls-1" d="M456.2,296.429a12.534,12.534,0,1,0,0-17.725A12.761,12.761,0,0,0,456.2,296.429Z" transform="translate(-351.443 -218.711)"/>
    <path id="Union_15" data-name="Union 15" class="cls-10" d="M1.706,1.7a5.758,5.758,0,0,0,0,8.181L9.887,1.7a5.765,5.765,0,0,0-8.181,0Zm0,8.181A5.785,5.785,0,0,0,9.887,1.7Z" transform="translate(119.419 74.649) rotate(180)"/>
    <path id="Union_18" data-name="Union 18" class="cls-7" d="M1.022,1.022a3.85,3.85,0,0,0,0,5.226,3.854,3.854,0,0,0,5.229,0,3.851,3.851,0,0,0,0-5.226A3.7,3.7,0,0,0,3.636,0,3.693,3.693,0,0,0,1.022,1.022Z" transform="translate(117.373 72.604) rotate(180)"/>
    <path id="Path_5354" data-name="Path 5354" class="cls-3" d="M460.454,280a2.089,2.089,0,0,1-2.954,2.954Z" transform="translate(-345.24 -212.508)"/>
    <path id="Path_5355" data-name="Path 5355" class="cls-3" d="M457.882,283.336a2.089,2.089,0,1,1,2.954-2.954Z" transform="translate(-345.622 -212.89)"/>
  </g>
</svg>
