<svg xmlns="http://www.w3.org/2000/svg" viewBox="0 0 34.54 28.07">
  <defs>
    <style>
      .cls-1 {
        fill: #e87d1e;
        fill-rule: evenodd;
      }
    </style>
  </defs>
  <g id="Group_47" data-name="Group 47" transform="translate(-8.503 -13.444)">
    <g id="twitter" transform="translate(8.504 13.444)">
      <path id="Path_60" data-name="Path 60" class="cls-1" d="M80.915,112.926a7.064,7.064,0,0,1-6.591-4.944,7.8,7.8,0,0,0,3.032-.066.2.2,0,0,0,.132-.066,7.09,7.09,0,0,1-4.614-3.23,6.742,6.742,0,0,1-1.055-3.757,6.692,6.692,0,0,0,3.164.857,6.937,6.937,0,0,1-2.9-4.284,7.065,7.065,0,0,1,.791-5.141,20.1,20.1,0,0,0,14.633,7.382c-.066-.264-.066-.527-.132-.791a6.7,6.7,0,0,1,1.055-4.614A7.071,7.071,0,0,1,99.437,93.02c.132.132.2.132.4.132a15.882,15.882,0,0,0,4.153-1.582l.066-.066h.066a7.7,7.7,0,0,1-3.032,3.889,13.5,13.5,0,0,0,3.955-1.055h0c-.264.33-.527.725-.791,1.055a15.023,15.023,0,0,1-2.571,2.439c-.066.066-.132.132-.132.2a16.954,16.954,0,0,1-.132,3.164,19.894,19.894,0,0,1-1.846,6.328,21.644,21.644,0,0,1-3.823,5.6,18.668,18.668,0,0,1-9.755,5.405A21.037,21.037,0,0,1,70.7,115.958c-.066,0-.066-.066-.2-.132a14.545,14.545,0,0,0,7.119-.989A15.26,15.26,0,0,0,80.915,112.926Z" transform="translate(-70.5 -90.931)"/>
    </g>
  </g>
</svg>
