<svg xmlns="http://www.w3.org/2000/svg" xmlns:xlink="http://www.w3.org/1999/xlink" viewBox="-2911 4248 150 98">
  <defs>
    <style>
      .cls-1 {
        fill: #41479b;
      }

      .cls-2 {
        clip-path: url(#clip-path);
      }

      .cls-3 {
        fill: #f5f5f5;
      }

      .cls-4 {
        fill: #ff4b55;
      }
    </style>
    <clipPath id="clip-path">
      <rect id="Rectangle_2203" data-name="Rectangle 2203" class="cls-1" width="150" height="98" rx="5" transform="translate(-1 -0.948)"/>
    </clipPath>
  </defs>
  <g id="united-kingdom_1_" data-name="united-kingdom (1)" transform="translate(-3935 4248.948)">
    <g id="Mask_Group_51" data-name="Mask Group 51" class="cls-2" transform="translate(1025)">
      <rect id="Rectangle_2202" data-name="Rectangle 2202" class="cls-1" width="150" height="98" rx="5" transform="translate(-1 0.052)"/>
      <path id="Path_4264" data-name="Path 4264" class="cls-1" d="M11.156,88.276A11.156,11.156,0,0,0,0,99.432v75.286a11.156,11.156,0,0,0,11.156,11.156H137.809a11.156,11.156,0,0,0,11.156-11.156V99.432Z" transform="translate(0 -88.276)"/>
      <path id="Path_4265" data-name="Path 4265" class="cls-3" d="M156.128,98.045a11.706,11.706,0,0,0-11.543-9.77H141.54L91.618,120.982V88.275H64.672v32.707L14.751,88.275H11.7A11.706,11.706,0,0,0,.162,98.046L42.83,126H0v26.947H42.83L.162,180.9a11.706,11.706,0,0,0,11.543,9.77h3.046l49.921-32.707v32.707H91.618V157.965l49.921,32.707h3.046a11.706,11.706,0,0,0,11.543-9.77L113.46,152.947h42.83V126H113.46Z" transform="translate(-3.662 -90.674)"/>
      <g id="Group_3736" data-name="Group 3736" transform="translate(-3.662 -2.399)">
        <path id="Path_4266" data-name="Path 4266" class="cls-4" d="M86.229,88.276H70.061v43.115H0v16.168H70.061v43.115H86.229V147.559H156.29V131.391H86.229Z" transform="translate(0 -88.276)"/>
        <path id="Path_4267" data-name="Path 4267" class="cls-4" d="M13.977,337.109l56.955-36.971h-9.9L9.224,333.769A11.719,11.719,0,0,0,13.977,337.109Z" transform="translate(-6.408 -235.466)"/>
        <path id="Path_4268" data-name="Path 4268" class="cls-4" d="M323.859,300.138h-9.9l55.164,35.808a11.757,11.757,0,0,0,3.751-3.991Z" transform="translate(-218.122 -235.466)"/>
        <path id="Path_4269" data-name="Path 4269" class="cls-4" d="M4.049,100,52.2,131.258h9.9L7.537,95.842A11.752,11.752,0,0,0,4.049,100Z" transform="translate(-2.813 -93.532)"/>
        <path id="Path_4270" data-name="Path 4270" class="cls-4" d="M310.037,127.635l51.9-33.692a11.722,11.722,0,0,0-4.792-3.315l-57.011,37.008Z" transform="translate(-208.519 -89.909)"/>
      </g>
    </g>
  </g>
</svg>
