<svg xmlns="http://www.w3.org/2000/svg" xmlns:xlink="http://www.w3.org/1999/xlink" viewBox="-3298 4248 150 98">
  <defs>
    <style>
      .cls-1 {
        fill: #fff;
      }

      .cls-2 {
        clip-path: url(#clip-path);
      }

      .cls-3 {
        fill: #f5f5f5;
      }

      .cls-4 {
        fill: #ff4b55;
      }

      .cls-5 {
        fill: #41479b;
      }
    </style>
    <clipPath id="clip-path">
      <rect id="Rectangle_26" data-name="Rectangle 26" class="cls-1" width="150" height="98" rx="5" transform="translate(1512 1898)"/>
    </clipPath>
  </defs>
  <g id="Mask_Group_1" data-name="Mask Group 1" class="cls-2" transform="translate(-4810 2350)">
    <g id="united-states_1_" data-name="united-states (1)" transform="translate(1508.515 1895.157)">
      <path id="Path_5833" data-name="Path 5833" class="cls-3" d="M145.691,88.276H11.794A11.794,11.794,0,0,0,0,100.07v79.591a11.794,11.794,0,0,0,11.794,11.794h133.9a11.794,11.794,0,0,0,11.794-11.794V100.07A11.794,11.794,0,0,0,145.691,88.276Z" transform="translate(0 -88.276)"/>
      <g id="Group_4310" data-name="Group 4310" transform="translate(0 0)">
        <path id="Path_5834" data-name="Path 5834" class="cls-4" d="M2.109,96.213H158.3a11.8,11.8,0,0,0-11.145-7.937H13.255A11.8,11.8,0,0,0,2.109,96.213Z" transform="translate(-1.46 -88.276)"/>
        <rect id="Rectangle_22" data-name="Rectangle 22" class="cls-4" width="157.485" height="7.937" transform="translate(0 31.747)"/>
        <rect id="Rectangle_23" data-name="Rectangle 23" class="cls-4" width="157.485" height="7.937" transform="translate(0 15.873)"/>
        <path id="Path_5835" data-name="Path 5835" class="cls-4" d="M0,248.32a2.716,2.716,0,0,0,2.715,2.715h154.77V243.1H0Z" transform="translate(0 -195.477)"/>
        <rect id="Rectangle_24" data-name="Rectangle 24" class="cls-4" width="157.485" height="7.937" transform="translate(0 79.371)"/>
        <path id="Path_5836" data-name="Path 5836" class="cls-4" d="M158.3,397.92H2.109a11.8,11.8,0,0,0,11.146,7.937h133.9A11.8,11.8,0,0,0,158.3,397.92Z" transform="translate(-1.46 -302.677)"/>
        <rect id="Rectangle_25" data-name="Rectangle 25" class="cls-4" width="157.485" height="7.937" transform="translate(0 63.497)"/>
      </g>
      <path id="Path_5837" data-name="Path 5837" class="cls-5" d="M2.715,143.834H70.6a2.716,2.716,0,0,0,2.715-2.715V90.99A2.715,2.715,0,0,0,70.6,88.275h-58.8A11.8,11.8,0,0,0,0,100.07v41.049A2.715,2.715,0,0,0,2.715,143.834Z" transform="translate(0 -88.275)"/>
      <g id="Group_4311" data-name="Group 4311" transform="translate(4.384 6.057)">
        <path id="Path_5838" data-name="Path 5838" class="cls-3" d="M17.494,108.143l.6,1.8,1.9.014a.256.256,0,0,1,.15.462l-1.528,1.129.573,1.811a.256.256,0,0,1-.393.285l-1.546-1.1-1.546,1.1a.256.256,0,0,1-.393-.285l.573-1.811-1.528-1.129a.256.256,0,0,1,.15-.462l1.9-.014.6-1.8A.256.256,0,0,1,17.494,108.143Z" transform="translate(-14.253 -107.968)"/>
        <path id="Path_5839" data-name="Path 5839" class="cls-3" d="M17.494,138.8l.6,1.8,1.9.014a.256.256,0,0,1,.15.462l-1.528,1.129.573,1.811a.256.256,0,0,1-.393.285l-1.546-1.1-1.546,1.1a.256.256,0,0,1-.393-.285l.573-1.811-1.528-1.129a.256.256,0,0,1,.15-.462l1.9-.014.6-1.8A.256.256,0,0,1,17.494,138.8Z" transform="translate(-14.253 -129.194)"/>
        <path id="Path_5840" data-name="Path 5840" class="cls-3" d="M17.494,169.452l.6,1.8,1.9.014a.256.256,0,0,1,.15.462l-1.528,1.129.573,1.811a.256.256,0,0,1-.393.285l-1.546-1.1-1.546,1.1a.256.256,0,0,1-.393-.285l.573-1.811-1.528-1.129a.256.256,0,0,1,.15-.462l1.9-.014.6-1.8A.256.256,0,0,1,17.494,169.452Z" transform="translate(-14.253 -150.419)"/>
        <path id="Path_5841" data-name="Path 5841" class="cls-3" d="M17.494,200.106l.6,1.8,1.9.014a.256.256,0,0,1,.15.462l-1.528,1.129.573,1.811a.256.256,0,0,1-.393.285l-1.546-1.1-1.546,1.1a.256.256,0,0,1-.393-.285l.573-1.811-1.528-1.129a.256.256,0,0,1,.15-.462l1.9-.014.6-1.8A.256.256,0,0,1,17.494,200.106Z" transform="translate(-14.253 -171.644)"/>
        <path id="Path_5842" data-name="Path 5842" class="cls-3" d="M17.494,230.76l.6,1.8,1.9.014a.256.256,0,0,1,.15.462l-1.528,1.129.573,1.811a.256.256,0,0,1-.393.285l-1.546-1.1-1.546,1.1a.256.256,0,0,1-.393-.285l.573-1.811-1.528-1.129a.256.256,0,0,1,.15-.462l1.9-.014.6-1.8A.256.256,0,0,1,17.494,230.76Z" transform="translate(-14.253 -192.87)"/>
        <path id="Path_5843" data-name="Path 5843" class="cls-3" d="M41.286,123.172l.6,1.8,1.9.014a.256.256,0,0,1,.15.462l-1.528,1.129.573,1.811a.256.256,0,0,1-.393.285l-1.546-1.1-1.546,1.1a.256.256,0,0,1-.393-.285l.573-1.811-1.528-1.129a.256.256,0,0,1,.15-.462l1.9-.014.6-1.8A.256.256,0,0,1,41.286,123.172Z" transform="translate(-30.727 -118.375)"/>
        <path id="Path_5844" data-name="Path 5844" class="cls-3" d="M41.286,153.827l.6,1.8,1.9.014a.256.256,0,0,1,.15.462l-1.528,1.129.573,1.811a.256.256,0,0,1-.393.285l-1.546-1.1-1.546,1.1a.256.256,0,0,1-.393-.285l.573-1.811-1.528-1.129a.256.256,0,0,1,.15-.462l1.9-.014.6-1.8A.256.256,0,0,1,41.286,153.827Z" transform="translate(-30.727 -139.6)"/>
        <path id="Path_5845" data-name="Path 5845" class="cls-3" d="M41.286,184.481l.6,1.8,1.9.014a.256.256,0,0,1,.15.462l-1.528,1.129.573,1.811a.256.256,0,0,1-.393.285l-1.546-1.1-1.546,1.1a.256.256,0,0,1-.393-.285l.573-1.811L38.15,186.76a.256.256,0,0,1,.15-.462l1.9-.014.6-1.8A.256.256,0,0,1,41.286,184.481Z" transform="translate(-30.727 -160.825)"/>
        <path id="Path_5846" data-name="Path 5846" class="cls-3" d="M41.286,215.135l.6,1.8,1.9.014a.256.256,0,0,1,.15.462l-1.528,1.129.573,1.811a.256.256,0,0,1-.393.285l-1.546-1.1-1.546,1.1a.256.256,0,0,1-.393-.285l.573-1.811-1.528-1.129a.256.256,0,0,1,.15-.462l1.9-.014.6-1.8A.256.256,0,0,1,41.286,215.135Z" transform="translate(-30.727 -182.051)"/>
        <path id="Path_5847" data-name="Path 5847" class="cls-3" d="M65.079,108.143l.6,1.8,1.9.014a.256.256,0,0,1,.15.462L66.2,111.55l.573,1.811a.256.256,0,0,1-.393.285l-1.546-1.1-1.546,1.1a.256.256,0,0,1-.393-.285l.573-1.811-1.528-1.129a.256.256,0,0,1,.15-.462l1.9-.014.6-1.8A.256.256,0,0,1,65.079,108.143Z" transform="translate(-47.202 -107.968)"/>
        <path id="Path_5848" data-name="Path 5848" class="cls-3" d="M65.079,138.8l.6,1.8,1.9.014a.256.256,0,0,1,.15.462L66.2,142.205l.573,1.811a.256.256,0,0,1-.393.285l-1.546-1.1-1.546,1.1a.256.256,0,0,1-.393-.285l.573-1.811-1.528-1.129a.256.256,0,0,1,.15-.462l1.9-.014.6-1.8A.256.256,0,0,1,65.079,138.8Z" transform="translate(-47.202 -129.193)"/>
        <path id="Path_5849" data-name="Path 5849" class="cls-3" d="M65.079,169.452l.6,1.8,1.9.014a.256.256,0,0,1,.15.462L66.2,172.86l.573,1.811a.256.256,0,0,1-.393.285l-1.546-1.1-1.546,1.1a.256.256,0,0,1-.393-.285l.573-1.811-1.528-1.129a.256.256,0,0,1,.15-.462l1.9-.014.6-1.8A.256.256,0,0,1,65.079,169.452Z" transform="translate(-47.202 -150.419)"/>
        <path id="Path_5850" data-name="Path 5850" class="cls-3" d="M65.079,200.106l.6,1.8,1.9.014a.256.256,0,0,1,.15.462L66.2,203.514l.573,1.811a.256.256,0,0,1-.393.285l-1.546-1.1-1.546,1.1a.256.256,0,0,1-.393-.285l.573-1.811-1.528-1.129a.256.256,0,0,1,.15-.462l1.9-.014.6-1.8A.256.256,0,0,1,65.079,200.106Z" transform="translate(-47.202 -171.644)"/>
        <path id="Path_5851" data-name="Path 5851" class="cls-3" d="M65.079,230.76l.6,1.8,1.9.014a.256.256,0,0,1,.15.462L66.2,234.168l.573,1.811a.256.256,0,0,1-.393.285l-1.546-1.1-1.546,1.1a.256.256,0,0,1-.393-.285l.573-1.811-1.528-1.129a.256.256,0,0,1,.15-.462l1.9-.014.6-1.8A.256.256,0,0,1,65.079,230.76Z" transform="translate(-47.202 -192.87)"/>
        <path id="Path_5852" data-name="Path 5852" class="cls-3" d="M88.873,123.172l.6,1.8,1.9.014a.256.256,0,0,1,.15.462L90,126.58l.573,1.811a.256.256,0,0,1-.393.285l-1.546-1.1-1.546,1.1a.256.256,0,0,1-.393-.285l.573-1.811-1.528-1.129a.256.256,0,0,1,.15-.462l1.9-.014.6-1.8A.256.256,0,0,1,88.873,123.172Z" transform="translate(-63.677 -118.375)"/>
        <path id="Path_5853" data-name="Path 5853" class="cls-3" d="M88.873,153.827l.6,1.8,1.9.014a.256.256,0,0,1,.15.462L90,157.235l.573,1.811a.256.256,0,0,1-.393.285l-1.546-1.1-1.546,1.1a.256.256,0,0,1-.393-.285l.573-1.811-1.528-1.129a.256.256,0,0,1,.15-.462l1.9-.014.6-1.8A.256.256,0,0,1,88.873,153.827Z" transform="translate(-63.677 -139.6)"/>
        <path id="Path_5854" data-name="Path 5854" class="cls-3" d="M88.873,184.481l.6,1.8,1.9.014a.256.256,0,0,1,.15.462L90,187.889l.573,1.811a.256.256,0,0,1-.393.285l-1.546-1.1-1.546,1.1a.256.256,0,0,1-.393-.285l.573-1.811-1.528-1.129a.256.256,0,0,1,.15-.462l1.9-.014.6-1.8A.256.256,0,0,1,88.873,184.481Z" transform="translate(-63.677 -160.825)"/>
        <path id="Path_5855" data-name="Path 5855" class="cls-3" d="M88.873,215.135l.6,1.8,1.9.014a.256.256,0,0,1,.15.462L90,218.543l.573,1.811a.256.256,0,0,1-.393.285l-1.546-1.1-1.546,1.1a.256.256,0,0,1-.393-.285l.573-1.811-1.528-1.129a.256.256,0,0,1,.15-.462l1.9-.014.6-1.8A.256.256,0,0,1,88.873,215.135Z" transform="translate(-63.677 -182.051)"/>
        <path id="Path_5856" data-name="Path 5856" class="cls-3" d="M112.666,108.143l.6,1.8,1.9.014a.256.256,0,0,1,.15.462l-1.528,1.129.573,1.811a.256.256,0,0,1-.393.285l-1.546-1.1-1.546,1.1a.256.256,0,0,1-.393-.285l.573-1.811-1.528-1.129a.256.256,0,0,1,.15-.462l1.9-.014.6-1.8A.256.256,0,0,1,112.666,108.143Z" transform="translate(-80.151 -107.968)"/>
        <path id="Path_5857" data-name="Path 5857" class="cls-3" d="M112.666,138.8l.6,1.8,1.9.014a.256.256,0,0,1,.15.462l-1.528,1.129.573,1.811a.256.256,0,0,1-.393.285l-1.546-1.1-1.546,1.1a.256.256,0,0,1-.393-.285l.573-1.811-1.528-1.129a.256.256,0,0,1,.15-.462l1.9-.014.6-1.8A.256.256,0,0,1,112.666,138.8Z" transform="translate(-80.151 -129.193)"/>
        <path id="Path_5858" data-name="Path 5858" class="cls-3" d="M112.666,169.452l.6,1.8,1.9.014a.256.256,0,0,1,.15.462l-1.528,1.129.573,1.811a.256.256,0,0,1-.393.285l-1.546-1.105-1.546,1.1a.256.256,0,0,1-.393-.285l.573-1.811-1.528-1.129a.256.256,0,0,1,.15-.462l1.9-.014.6-1.8A.256.256,0,0,1,112.666,169.452Z" transform="translate(-80.151 -150.419)"/>
        <path id="Path_5859" data-name="Path 5859" class="cls-3" d="M112.666,200.106l.6,1.8,1.9.014a.256.256,0,0,1,.15.462l-1.528,1.129.573,1.811a.256.256,0,0,1-.393.285l-1.546-1.1-1.546,1.1a.256.256,0,0,1-.393-.285l.573-1.811-1.528-1.129a.256.256,0,0,1,.15-.462l1.9-.014.6-1.8A.256.256,0,0,1,112.666,200.106Z" transform="translate(-80.151 -171.644)"/>
        <path id="Path_5860" data-name="Path 5860" class="cls-3" d="M112.666,230.76l.6,1.8,1.9.014a.256.256,0,0,1,.15.462l-1.528,1.129.573,1.811a.256.256,0,0,1-.393.285l-1.546-1.1-1.546,1.1a.256.256,0,0,1-.393-.285l.573-1.811-1.528-1.129a.256.256,0,0,1,.15-.462l1.9-.014.6-1.8A.256.256,0,0,1,112.666,230.76Z" transform="translate(-80.151 -192.87)"/>
        <path id="Path_5861" data-name="Path 5861" class="cls-3" d="M136.46,123.172l.6,1.8,1.9.014a.256.256,0,0,1,.15.462l-1.528,1.129.573,1.811a.256.256,0,0,1-.393.285l-1.546-1.1-1.546,1.1a.256.256,0,0,1-.393-.285l.573-1.811-1.528-1.129a.256.256,0,0,1,.15-.462l1.9-.014.6-1.8A.256.256,0,0,1,136.46,123.172Z" transform="translate(-96.626 -118.375)"/>
        <path id="Path_5862" data-name="Path 5862" class="cls-3" d="M136.46,153.827l.6,1.8,1.9.014a.256.256,0,0,1,.15.462l-1.528,1.129.573,1.811a.256.256,0,0,1-.393.285l-1.546-1.1-1.546,1.1a.256.256,0,0,1-.393-.285l.573-1.811-1.528-1.129a.256.256,0,0,1,.15-.462l1.9-.014.6-1.8A.256.256,0,0,1,136.46,153.827Z" transform="translate(-96.626 -139.6)"/>
        <path id="Path_5863" data-name="Path 5863" class="cls-3" d="M136.46,184.481l.6,1.8,1.9.014a.256.256,0,0,1,.15.462l-1.528,1.129.573,1.811a.256.256,0,0,1-.393.285l-1.546-1.1-1.546,1.1a.256.256,0,0,1-.393-.285l.573-1.811-1.528-1.129a.256.256,0,0,1,.15-.462l1.9-.014.6-1.8A.256.256,0,0,1,136.46,184.481Z" transform="translate(-96.626 -160.825)"/>
        <path id="Path_5864" data-name="Path 5864" class="cls-3" d="M136.46,215.135l.6,1.8,1.9.014a.256.256,0,0,1,.15.462l-1.528,1.129.573,1.811a.256.256,0,0,1-.393.285l-1.546-1.1-1.546,1.1a.256.256,0,0,1-.393-.285l.573-1.811-1.528-1.129a.256.256,0,0,1,.15-.462l1.9-.014.6-1.8A.256.256,0,0,1,136.46,215.135Z" transform="translate(-96.626 -182.051)"/>
        <path id="Path_5865" data-name="Path 5865" class="cls-3" d="M160.254,108.143l.6,1.8,1.9.014a.256.256,0,0,1,.15.462l-1.528,1.129.573,1.811a.256.256,0,0,1-.393.285l-1.546-1.1-1.546,1.1a.256.256,0,0,1-.393-.285l.573-1.811-1.528-1.129a.256.256,0,0,1,.15-.462l1.9-.014.6-1.8A.256.256,0,0,1,160.254,108.143Z" transform="translate(-113.101 -107.968)"/>
        <path id="Path_5866" data-name="Path 5866" class="cls-3" d="M160.254,138.8l.6,1.8,1.9.014a.256.256,0,0,1,.15.462l-1.528,1.129.573,1.811a.256.256,0,0,1-.393.285l-1.546-1.1-1.546,1.1a.256.256,0,0,1-.393-.285l.573-1.811-1.528-1.129a.256.256,0,0,1,.15-.462l1.9-.014.6-1.8A.256.256,0,0,1,160.254,138.8Z" transform="translate(-113.101 -129.193)"/>
        <path id="Path_5867" data-name="Path 5867" class="cls-3" d="M160.254,169.452l.6,1.8,1.9.014a.256.256,0,0,1,.15.462l-1.528,1.129.573,1.811a.256.256,0,0,1-.393.285l-1.546-1.1-1.546,1.1a.256.256,0,0,1-.393-.285l.573-1.811-1.528-1.129a.256.256,0,0,1,.15-.462l1.9-.014.6-1.8A.256.256,0,0,1,160.254,169.452Z" transform="translate(-113.101 -150.419)"/>
        <path id="Path_5868" data-name="Path 5868" class="cls-3" d="M160.254,200.106l.6,1.8,1.9.014a.256.256,0,0,1,.15.462l-1.528,1.129.573,1.811a.256.256,0,0,1-.393.285l-1.546-1.1-1.546,1.1a.256.256,0,0,1-.393-.285l.573-1.811-1.528-1.129a.256.256,0,0,1,.15-.462l1.9-.014.6-1.8A.256.256,0,0,1,160.254,200.106Z" transform="translate(-113.101 -171.644)"/>
        <path id="Path_5869" data-name="Path 5869" class="cls-3" d="M160.254,230.76l.6,1.8,1.9.014a.256.256,0,0,1,.15.462l-1.528,1.129.573,1.811a.256.256,0,0,1-.393.285l-1.546-1.1-1.546,1.1a.256.256,0,0,1-.393-.285l.573-1.811-1.528-1.129a.256.256,0,0,1,.15-.462l1.9-.014.6-1.8A.256.256,0,0,1,160.254,230.76Z" transform="translate(-113.101 -192.87)"/>
        <path id="Path_5870" data-name="Path 5870" class="cls-3" d="M184.047,123.172l.6,1.8,1.9.014a.256.256,0,0,1,.15.462l-1.528,1.129.573,1.811a.256.256,0,0,1-.393.285l-1.546-1.1-1.546,1.1a.256.256,0,0,1-.393-.285l.573-1.811-1.528-1.129a.256.256,0,0,1,.15-.462l1.9-.014.6-1.8A.256.256,0,0,1,184.047,123.172Z" transform="translate(-129.576 -118.375)"/>
        <path id="Path_5871" data-name="Path 5871" class="cls-3" d="M184.047,153.827l.6,1.8,1.9.014a.256.256,0,0,1,.15.462l-1.528,1.129.573,1.811a.256.256,0,0,1-.393.285l-1.546-1.1-1.546,1.1a.256.256,0,0,1-.393-.285l.573-1.811-1.528-1.129a.256.256,0,0,1,.15-.462l1.9-.014.6-1.8A.256.256,0,0,1,184.047,153.827Z" transform="translate(-129.576 -139.6)"/>
        <path id="Path_5872" data-name="Path 5872" class="cls-3" d="M184.047,184.481l.6,1.8,1.9.014a.256.256,0,0,1,.15.462l-1.528,1.129.573,1.811a.256.256,0,0,1-.393.285l-1.546-1.1-1.546,1.1a.256.256,0,0,1-.393-.285l.573-1.811-1.528-1.129a.256.256,0,0,1,.15-.462l1.9-.014.6-1.8A.256.256,0,0,1,184.047,184.481Z" transform="translate(-129.576 -160.825)"/>
        <path id="Path_5873" data-name="Path 5873" class="cls-3" d="M184.047,215.135l.6,1.8,1.9.014a.256.256,0,0,1,.15.462l-1.528,1.129.573,1.811a.256.256,0,0,1-.393.285l-1.546-1.1-1.546,1.1a.256.256,0,0,1-.393-.285l.573-1.811-1.528-1.129a.256.256,0,0,1,.15-.462l1.9-.014.6-1.8A.256.256,0,0,1,184.047,215.135Z" transform="translate(-129.576 -182.051)"/>
        <path id="Path_5874" data-name="Path 5874" class="cls-3" d="M207.841,108.143l.6,1.8,1.9.014a.256.256,0,0,1,.15.462l-1.528,1.129.573,1.811a.256.256,0,0,1-.393.285l-1.546-1.1-1.546,1.1a.256.256,0,0,1-.393-.285l.573-1.811-1.528-1.129a.256.256,0,0,1,.15-.462l1.9-.014.6-1.8A.256.256,0,0,1,207.841,108.143Z" transform="translate(-146.051 -107.968)"/>
        <path id="Path_5875" data-name="Path 5875" class="cls-3" d="M207.841,138.8l.6,1.8,1.9.014a.256.256,0,0,1,.15.462l-1.528,1.129.573,1.811a.256.256,0,0,1-.393.285l-1.546-1.1-1.546,1.1a.256.256,0,0,1-.393-.285l.573-1.811-1.528-1.129a.256.256,0,0,1,.15-.462l1.9-.014.6-1.8A.256.256,0,0,1,207.841,138.8Z" transform="translate(-146.051 -129.193)"/>
        <path id="Path_5876" data-name="Path 5876" class="cls-3" d="M207.841,169.452l.6,1.8,1.9.014a.256.256,0,0,1,.15.462l-1.528,1.129.573,1.811a.256.256,0,0,1-.393.285l-1.546-1.1-1.546,1.1a.256.256,0,0,1-.393-.285l.573-1.811-1.528-1.129a.256.256,0,0,1,.15-.462l1.9-.014.6-1.8A.256.256,0,0,1,207.841,169.452Z" transform="translate(-146.051 -150.419)"/>
        <path id="Path_5877" data-name="Path 5877" class="cls-3" d="M207.841,200.106l.6,1.8,1.9.014a.256.256,0,0,1,.15.462l-1.528,1.129.573,1.811a.256.256,0,0,1-.393.285l-1.546-1.1-1.546,1.1a.256.256,0,0,1-.393-.285l.573-1.811-1.528-1.129a.256.256,0,0,1,.15-.462l1.9-.014.6-1.8A.256.256,0,0,1,207.841,200.106Z" transform="translate(-146.051 -171.644)"/>
        <path id="Path_5878" data-name="Path 5878" class="cls-3" d="M207.841,230.76l.6,1.8,1.9.014a.256.256,0,0,1,.15.462l-1.528,1.129.573,1.811a.256.256,0,0,1-.393.285l-1.546-1.1-1.546,1.1a.256.256,0,0,1-.393-.285l.573-1.811-1.528-1.129a.256.256,0,0,1,.15-.462l1.9-.014.6-1.8A.256.256,0,0,1,207.841,230.76Z" transform="translate(-146.051 -192.87)"/>
      </g>
    </g>
  </g>
</svg>
