<svg xmlns="http://www.w3.org/2000/svg" viewBox="10821.713 -20316.5 71.358 71.357">
  <defs>
    <style>
      .cls-1 {
        fill: #fff;
        stroke: #e87d1e;
      }

      .cls-2 {
        fill: #e87d1e;
      }
    </style>
  </defs>
  <g id="Group_7755" data-name="Group 7755" transform="translate(10822.213 -20316)">
    <circle id="Ellipse_517" data-name="Ellipse 517" class="cls-1" cx="35.179" cy="35.179" r="35.179"/>
    <g id="Group_7748" data-name="Group 7748" transform="translate(10.042 11.721)">
      <path id="Path_5330" data-name="Path 5330" class="cls-2" d="M34.835,9.659c.511-.256,1.023-.256,1.278-.511,6.392-2.812,8.693-2.557,12.017,3.835,1.534,3.068,1.79,6.9,2.045,10.227.256,2.812-2.045,4.346-4.6,5.113-2.3.767-2.812,1.79-2.557,4.091.511,15.34-17.386,21.221-28.635,15.6-5.113-2.557-5.625-7.926-6.9-12.784-.256-.767,0-1.534-.256-2.045-.256-3.324-.256-6.392-4.091-8.693-4.091-2.3-3.579-6.9-2.045-10.738A20.991,20.991,0,0,1,24.864.454c3.579.767,6.136,3.068,8.182,6.136A19.07,19.07,0,0,1,34.835,9.659Zm0,2.812C33.812,10.681,33.3,8.636,31.767,7.1c-2.045-2.045-4.346-4.6-6.9-5.369C15.66-.824,5.177,5.057,2.109,14.261c-1.79,5.369-.256,9.2,4.6,10.994,0-1.534.256-2.812.256-4.346h.767c0,1.023.256,1.79.256,2.812.256,3.835.256,7.67.767,11.505.767,4.346,1.278,9.2,6.136,11.761,10.483,5.369,27.613,0,27.1-14.829-.256-3.324.256-6.648.511-10.227h.767v6.136c3.068-1.278,5.625-2.045,5.88-5.625A15.949,15.949,0,0,0,46.34,11.96C43.017,7.613,37.9,7.869,34.835,12.471Z" transform="translate(0 0)"/>
      <path id="Path_5331" data-name="Path 5331" class="cls-2" d="M5.2,15.138a24.134,24.134,0,0,1,.767-2.3c3.835,1.534,4.6,1.278,6.9-2.3l3.068-4.6A6.693,6.693,0,0,1,19.262,4.4c-5.113,2.045-4.6,10.227-11.25,10.738,3.324,2.3,5.625,1.79,7.67-1.278,1.278-1.79,2.3-3.579,3.579-5.369s2.812-2.045,4.858-.767c-3.579-.256-4.858,2.3-6.392,4.6C14.149,18.718,11.336,19.485,5.2,15.138Z" transform="translate(8.159 6.793)"/>
      <path id="Path_5332" data-name="Path 5332" class="cls-2" d="M9.534,11.2c-.256,1.534-.256,3.324-.511,4.858v5.625c1.278-.256,2.557-.256,3.835-.511,0,.256.256.511.256.767-1.278.256-2.557,1.023-3.835.767C8.511,22.45,8,20.916,8,19.893c0-2.812.256-5.88.511-8.693Z" transform="translate(12.517 17.379)"/>
      <path id="Path_5333" data-name="Path 5333" class="cls-2" d="M6.9,17.323c3.579,1.023,3.579,1.023,12.017-1.023C15.593,20.391,9.457,21.158,6.9,17.323Z" transform="translate(10.805 25.318)"/>
      <path id="Path_5334" data-name="Path 5334" class="cls-2" d="M12,16.28c0-1.79.256-3.324.256-5.88,2.812,2.557,1.79,4.091,1.278,5.88Z" transform="translate(18.744 16.133)"/>
      <path id="Path_5335" data-name="Path 5335" class="cls-2" d="M19.091,11.8C17.557,9.246,16.278,6.945,15,4.9,17.812,5.411,19.091,7.457,19.091,11.8Z" transform="translate(23.415 7.571)"/>
      <path id="Path_5336" data-name="Path 5336" class="cls-2" d="M6.934,10.9v4.858H5.656c0-1.534-.256-3.324-.256-4.858Z" transform="translate(8.47 16.912)"/>
    </g>
  </g>
</svg>
