<?xml version="1.0" encoding="utf-8"?>
<!-- Generator: Adobe Illustrator 22.0.0, SVG Export Plug-In . SVG Version: 6.00 Build 0)  -->
<svg version="1.1" id="Capa_1" xmlns="http://www.w3.org/2000/svg" xmlns:xlink="http://www.w3.org/1999/xlink" x="0px" y="0px"
	 viewBox="0 0 90 90" style="enable-background:new 0 0 90 90;" xml:space="preserve">
<style type="text/css">
	.st0{fill:#F47F26;}
</style>
<g>
	<path id="YouTube" class="st0" d="M70.9,65.8H66l0-2.9c0-1.3,1-2.3,2.3-2.3h0.3c1.3,0,2.3,1,2.3,2.3L70.9,65.8z M52.4,59.7
		c-1.3,0-2.3,0.8-2.3,1.9v14c0,1,1,1.9,2.3,1.9c1.3,0,2.3-0.8,2.3-1.9v-14C54.7,60.5,53.7,59.7,52.4,59.7z M82.5,51.9v26.5
		C82.5,84.8,77,90,70.2,90H19.8C13,90,7.5,84.8,7.5,78.4V51.9c0-6.4,5.5-11.6,12.3-11.6h50.5C77,40.3,82.5,45.5,82.5,51.9z
		 M23.1,81.3l0-28l6.3,0v-4.1l-16.7,0v4.1l5.2,0v28H23.1z M41.9,57.5h-5.2v14.9c0,2.2,0.1,3.2,0,3.6c-0.4,1.2-2.3,2.4-3.1,0.1
		c-0.1-0.4,0-1.6,0-3.6l0-15h-5.2l0,14.8c0,2.3-0.1,4,0,4.7c0.1,1.4,0.1,2.9,1.3,3.8c2.3,1.7,6.8-0.3,8-2.7l0,3.1l4.2,0L41.9,57.5
		L41.9,57.5z M58.6,74.6l0-12.4c0-4.7-3.5-7.6-8.4-3.7l0-9.2l-5.2,0l0,31.9l4.3-0.1l0.4-2C55.1,84.1,58.6,80.6,58.6,74.6z M74.9,73
		L71,73c0,0.2,0,0.3,0,0.5v2.2c0,1.2-1,2.1-2.1,2.1h-0.8c-1.2,0-2.1-1-2.1-2.1v-0.2V73V70h9v-3.4c0-2.5-0.1-4.9-0.3-6.3
		c-0.6-4.5-6.9-5.2-10.1-2.9c-1,0.7-1.7,1.7-2.2,2.9c-0.4,1.3-0.7,3-0.7,5.3V73C61.7,85.3,76.7,83.6,74.9,73z"/>
</g>
<path class="st0" d="M54.8,32.7c0.3,0.7,0.7,1.2,1.3,1.6c0.6,0.4,1.3,0.6,2.1,0.6c0.8,0,1.4-0.2,2-0.6c0.6-0.4,1.1-1,1.5-1.9l-0.1,2
	h5.8V9.7h-4.6V29c0,1-0.9,1.9-1.9,1.9c-1,0-1.9-0.9-1.9-1.9V9.7h-4.8v16.7c0,2.1,0,3.5,0.1,4.3C54.4,31.4,54.6,32.1,54.8,32.7z"/>
<path class="st0" d="M50.7,14.2c-0.2-0.9-0.5-1.7-1.1-2.6c-0.5-0.8-1.3-1.5-2.2-2c-1-0.5-2.1-0.8-3.5-0.8c-1.6,0-2.9,0.4-3.9,1.2
	c-1,0.8-1.7,1.9-2.1,3.2c-0.4,1.3-0.6,3.2-0.6,5.6l0,6.5c0,2.2,0.1,3.8,0.3,4.9c0.2,1.1,0.6,2,1.1,2.8c0.5,0.8,1.2,1.3,2.1,1.7
	c0.9,0.4,2,0.6,3.4,0.6c1.2,0,2.2-0.2,3.2-0.7c0.9-0.4,1.7-1.1,2.2-2.1c0.6-0.9,1-1.9,1.1-3c0.2-1.1,0.3-2.8,0.3-5.1v-6.3
	C50.9,16.4,50.8,15.1,50.7,14.2z M46.4,28.6c0,1.4-1,2.5-2.3,2.5c-1.3,0-2.3-1.1-2.3-2.5V15.4c0-1.4,1-2.5,2.3-2.5
	c1.3,0,2.3,1.1,2.3,2.5V28.6z"/>
<polygon class="st0" points="25.7,35.2 31.2,35.2 31.2,16.3 37.7,0 31.7,0 28.2,12.1 24.7,0 18.8,0 25.7,16.3 "/>
</svg>
