<?xml version="1.0" encoding="utf-8"?>
<!-- Generator: Adobe Illustrator 22.0.1, SVG Export Plug-In . SVG Version: 6.00 Build 0)  -->
<svg version="1.1" id="Layer_1" xmlns="http://www.w3.org/2000/svg" xmlns:xlink="http://www.w3.org/1999/xlink" x="0px" y="0px"
	 viewBox="0 0 40 38.7" style="enable-background:new 0 0 40 38.7;" xml:space="preserve">
<style type="text/css">
	.st0{fill:#082158;}
</style>
<g id="fax" transform="translate(-2344.518 8873.149)">
	<path id="Path_5350" class="st0" d="M2370.4-8839.7h-9.6c-0.4,0-0.7,0.3-0.7,0.6s0.3,0.7,0.6,0.7c0,0,0,0,0.1,0h9.6
		c0.4,0,0.7-0.3,0.7-0.6C2371.1-8839.4,2370.8-8839.7,2370.4-8839.7C2370.5-8839.7,2370.4-8839.7,2370.4-8839.7z"/>
	<path id="Path_5351" class="st0" d="M2370.4-8842.3h-9.6c-0.4,0-0.7,0.3-0.7,0.6s0.3,0.7,0.6,0.7c0,0,0,0,0.1,0h9.6
		c0.4,0,0.7-0.3,0.7-0.6C2371.1-8842,2370.8-8842.3,2370.4-8842.3C2370.5-8842.3,2370.4-8842.3,2370.4-8842.3z"/>
	<path id="Path_5352" class="st0" d="M2370.4-8844.9h-9.6c-0.4,0-0.7,0.3-0.7,0.6s0.3,0.7,0.6,0.7c0,0,0,0,0.1,0h9.6
		c0.4,0,0.7-0.3,0.7-0.6C2371.1-8844.6,2370.8-8844.9,2370.4-8844.9C2370.5-8844.9,2370.4-8844.9,2370.4-8844.9z"/>
	<path id="Path_5353" class="st0" d="M2370.4-8853.9h-9.6c-0.4,0-0.6,0.2-0.6,0.4v2.1c0,0.2,0.3,0.4,0.6,0.4h1.7
		c0.4,0,0.6-0.2,0.6-0.4c0-0.2-0.3-0.4-0.6-0.4h-1.1v-1.3h8.3v1.3h-4.6c-0.4,0-0.7,0.2-0.7,0.4c0,0.2,0.3,0.4,0.6,0.4c0,0,0,0,0.1,0
		h5.3c0.4,0,0.6-0.2,0.6-0.4v-2.1C2371.1-8853.7,2370.8-8853.9,2370.4-8853.9z"/>
	<path id="Path_5354" class="st0" d="M2377.3-8851.8c-2,0-3.5,1.6-3.5,3.5c0,2,1.6,3.5,3.5,3.5s3.5-1.6,3.5-3.5l0,0
		C2380.8-8850.2,2379.3-8851.8,2377.3-8851.8z M2377.3-8846c-1.2,0-2.2-1-2.2-2.2s1-2.2,2.2-2.2c1.2,0,2.2,1,2.2,2.2l0,0
		C2379.6-8847,2378.5-8846,2377.3-8846z"/>
	<path id="Path_5355" class="st0" d="M2382.4-8855.8h-1.2v-8c0-0.4-0.3-0.6-0.6-0.6h-2.1v-8c0-0.4-0.3-0.6-0.6-0.6h-14.6
		c-0.4,0-0.6,0.3-0.6,0.6v8h-2.1c-0.4,0-0.6,0.3-0.6,0.6v8h-2.3c-0.1-3.6-0.2-6.2-0.2-6.3v0c-0.1-0.7-0.5-1.3-1.1-1.6
		c-0.3-0.3-1-0.4-3.4-0.4c-2.5,0-3.2,0.2-3.4,0.4c-0.6,0.3-1.1,0.9-1.1,1.6v0c0,0-0.1,2.6-0.2,6.3h-1.3c-1.2,0-2.2,1-2.2,2.2
		c0,0,0,0,0,0v17c0,1.2,1,2.2,2.2,2.2c0,0,0,0,0,0h35.6c1.2,0,2.2-1,2.2-2.2l0,0v-17C2384.6-8854.8,2383.6-8855.8,2382.4-8855.8z
		 M2379.8-8863.2v7.4h-1.5v-7.4H2379.8z M2363.8-8871.9h13.3v16h-13.3V-8871.9z M2361-8863.2h1.5v7.4h-1.5V-8863.2z M2349.5-8862
		c0-0.2,0.2-0.4,0.4-0.5c0.1,0,0.2-0.1,0.3-0.2c0.8-0.1,1.7-0.2,2.6-0.1c0.9,0,1.7,0,2.6,0.1c0.1,0.1,0.2,0.1,0.3,0.2
		c0.2,0.1,0.4,0.3,0.4,0.5c0,0.2,0.2,5.2,0.2,11c0,5.8-0.2,10.8-0.2,11c0,0.2-0.2,0.4-0.4,0.5c-0.1,0-0.2,0.1-0.3,0.2
		c-0.8,0.1-1.7,0.2-2.6,0.1c-0.9,0-1.7,0-2.6-0.1c-0.1-0.1-0.2-0.1-0.3-0.2c-0.2-0.1-0.4-0.3-0.4-0.5c0-0.2-0.2-5.2-0.2-11
		C2349.2-8856.8,2349.5-8861.8,2349.5-8862z M2383.3-8836.6c0,0.5-0.4,0.9-0.9,0.9h-35.6c-0.5,0-0.9-0.4-0.9-0.9v-17
		c0-0.5,0.4-0.9,0.9-0.9h1.3c0,1.1,0,2.3,0,3.6c0,6,0.2,11.1,0.2,11.1c0,0,0,0,0,0c0.1,0.7,0.5,1.3,1.1,1.6c0.3,0.3,1,0.4,3.4,0.4
		c2.5,0,3.2-0.2,3.4-0.4c0.6-0.3,1.1-0.9,1.1-1.6c0,0,0,0,0,0c0-0.1,0.2-5.1,0.2-11.1c0-1.2,0-2.4,0-3.6h24.9c0.5,0,0.9,0.4,0.9,0.9
		L2383.3-8836.6z"/>
	<path id="Path_5356" class="st0" d="M2367.1-8858.9h3.3c0.4,0,0.7-0.3,0.7-0.6c0-0.4-0.3-0.7-0.6-0.7c0,0,0,0-0.1,0h-3.3
		c-0.4,0-0.6,0.3-0.6,0.7C2366.5-8859.1,2366.8-8858.9,2367.1-8858.9z"/>
	<path id="Path_5357" class="st0" d="M2367.1-8863.2h6.7c0.4,0,0.7-0.3,0.7-0.6c0-0.4-0.3-0.7-0.6-0.7c0,0,0,0-0.1,0h-6.7
		c-0.4,0-0.6,0.3-0.6,0.7C2366.5-8863.5,2366.8-8863.2,2367.1-8863.2z"/>
	<path id="Path_5358" class="st0" d="M2367.1-8867.5h6.7c0.4,0,0.7-0.3,0.7-0.6c0-0.4-0.3-0.7-0.6-0.7c0,0,0,0-0.1,0h-6.7
		c-0.4,0-0.6,0.3-0.6,0.7C2366.5-8867.8,2366.8-8867.5,2367.1-8867.5z"/>
</g>
</svg>
