<svg xmlns="http://www.w3.org/2000/svg" viewBox="-287.821 -20187.781 17.54 24.564">
  <defs>
    <style>
      .cls-1 {
        fill: #fff;
        stroke: #e87d1e;
        stroke-linecap: round;
        stroke-linejoin: round;
        stroke-miterlimit: 10;
        stroke-width: 0.4px;
      }
    </style>
  </defs>
  <path id="Path_19592" data-name="Path 19592" class="cls-1" d="M4.808,22.87c-.479,1.34.526,1.507,1.412,1.842.837.311,1.77,0,2.536.55l2.68-.144c.933-.837,2.3-.718,3.254-1.531.694-.574,1.483-1.053.837-2.129L12.44,22.3c1.459-.431,3.086-.5,3.948-2.105a5.171,5.171,0,0,0,.67-2.967,7.677,7.677,0,0,1,.718-3.8c.407-.861.837-1.747-.024-2.512-.455-.407-2.177.335-2.8.957-.766.742-.5,2.105-1.675,2.536l1.651-2.8a77.357,77.357,0,0,1-.12-8.158A2,2,0,0,0,13.66,1.337a1.665,1.665,0,0,0-2.105.55l-.287.287V9.926c-.048-2.2.1-4.4-.12-6.6C11.029,2.2,10.335,1.1,9.45,1.1c-1.077-.024-1.507.67-1.866,1.651a5.669,5.669,0,0,0-.1,2.823c.167,1.555.287,3.086.431,4.641l-.694-6.89C5.55,1.672,4.282,2.438,3.851,4.591l.981,6.747a27.357,27.357,0,0,0-1-6.053A1.415,1.415,0,0,0,2.3,4.161a1.261,1.261,0,0,0-1.22,1.412,40.717,40.717,0,0,0,.144,5.909c.287,2.3.574,4.594.933,6.866a7.92,7.92,0,0,0,1.483,3.421c.957,1.316,2.3.718,3.421,1.1Z" transform="translate(-288.669 -20188.68)"/>
</svg>
