<svg xmlns="http://www.w3.org/2000/svg" viewBox="0 0 32.554 32.522">
  <defs>
    <style>
      .cls-1 {
        fill: #e87d1e;
      }
    </style>
  </defs>
  <g id="Group_46" data-name="Group 46" transform="translate(-9.174 -10)">
    <g id="instagram" transform="translate(9.175 10.001)">
      <g id="Group_44" data-name="Group 44" transform="translate(0 0)">
        <path id="Path_62" data-name="Path 62" class="cls-1" d="M111.98,98.444a8.257,8.257,0,0,0-2.6-5.526,9.107,9.107,0,0,0-5.971-2.414c-3.811-.191-12.894-.318-16.07.191a8.253,8.253,0,0,0-7.05,6.288c-.762,2.795-.635,15.5-.191,18.293a8.3,8.3,0,0,0,6.542,7.114c2.541.635,15.181.572,18.039.127a8.237,8.237,0,0,0,7.114-6.479C112.552,113.053,112.3,100.984,111.98,98.444ZM109,114.7a5.513,5.513,0,0,1-5.208,4.891c-2.6.318-14.355.445-16.769-.254a5.269,5.269,0,0,1-4.065-4.573,109.256,109.256,0,0,1,0-16.451A5.505,5.505,0,0,1,88.1,93.426c2.858-.318,13.275-.381,16.006.064A5.513,5.513,0,0,1,109,98.7,103.562,103.562,0,0,1,109,114.7ZM96.038,98.19a8.321,8.321,0,1,0,8.384,8.321A8.446,8.446,0,0,0,96.038,98.19Zm-.064,13.72a5.4,5.4,0,1,1,5.463-5.4A5.448,5.448,0,0,1,95.974,111.909Zm10.671-14.037a1.979,1.979,0,0,1-1.969,1.969,1.939,1.939,0,0,1-1.969-1.969,1.969,1.969,0,0,1,3.938,0Z" transform="translate(-79.737 -90.337)"/>
      </g>
    </g>
  </g>
</svg>
