<?xml version="1.0" encoding="utf-8"?>
<!-- Generator: Adobe Illustrator 22.0.1, SVG Export Plug-In . SVG Version: 6.00 Build 0)  -->
<svg version="1.1" id="Layer_1" xmlns="http://www.w3.org/2000/svg" xmlns:xlink="http://www.w3.org/1999/xlink" x="0px" y="0px"
	 viewBox="0 0 24.4 34.8" style="enable-background:new 0 0 24.4 34.8;" xml:space="preserve">
<style type="text/css">
	.st0{fill:#082158;}
</style>
<g id="placeholder" transform="translate(-2346.004 8719.989)">
	<path id="Path_5308" class="st0" d="M2358.3-8703.5c2.5,0,4.4-2,4.4-4.4c0-2.5-2-4.4-4.4-4.4c-2.5,0-4.4,2-4.4,4.4
		C2353.9-8705.5,2355.8-8703.5,2358.3-8703.5z M2358.3-8711.1c1.8,0,3.2,1.4,3.2,3.2c0,1.8-1.4,3.2-3.2,3.2c-1.8,0-3.2-1.4-3.2-3.2
		C2355.1-8709.7,2356.5-8711.1,2358.3-8711.1z"/>
	<path id="Path_5309" class="st0" d="M2358.2-8685.2l9.7-14.1c3.7-4.9,3.1-12.9-1.1-17.1c-4.8-4.8-12.5-4.8-17.2,0c0,0,0,0,0,0
		c-4.3,4.3-4.8,12.3-1.1,17.1L2358.2-8685.2z M2350.5-8715.5c4.3-4.3,11.2-4.3,15.4,0c3.8,3.8,4.3,11.1,1,15.5l-8.7,12.6l-8.7-12.6
		C2346.2-8704.4,2346.6-8711.7,2350.5-8715.5z"/>
</g>
</svg>
