<svg xmlns="http://www.w3.org/2000/svg" viewBox="-3298.055 -16129.999 30.165 30.135">
  <defs>
    <style>
      .cls-1 {
        fill: #fff;
        stroke: #fff;
      }
    </style>
  </defs>
  <path id="SEARCH" class="cls-1" d="M31.644,29.878,24.506,22.74a12.552,12.552,0,0,0,3.059-8.158A12.382,12.382,0,1,0,15.182,26.965a12.552,12.552,0,0,0,8.158-3.059l7.138,7.138a1.1,1.1,0,0,0,.583.291.757.757,0,0,0,.583-.291.886.886,0,0,0,0-1.165m-27.1-15.3A10.634,10.634,0,1,1,15.182,25.217,10.421,10.421,0,0,1,4.548,14.582" transform="translate(-3300.355 -16131.699)"/>
</svg>
